<?xml version="1.0" encoding="UTF-8" standalone="no"?>
<svg width="30px" height="30px" viewBox="0 0 30 30" version="1.1" xmlns="http://www.w3.org/2000/svg" xmlns:xlink="http://www.w3.org/1999/xlink">
    <!-- Generator: Sketch 43.2 (39069) - http://www.bohemiancoding.com/sketch -->
    <title>icon/icon_umbrella</title>
    <desc>Created with Sketch.</desc>
    <defs></defs>
    <g id="Symbols" stroke="none" stroke-width="1" fill="none" fill-rule="evenodd">
        <g id="icon/icon_umbrella" fill-rule="nonzero" fill="#6B7586">
            <path d="M11.2670795,13.5041168 C11.447368,13.7099087 11.4295746,14.0252832 11.2272407,14.2087194 C11.0249721,14.392089 10.7148314,14.3739916 10.5345429,14.1682663 C9.9314006,13.4800313 9.06606806,13.0853474 8.16037339,13.0853474 C6.50120879,13.0853474 5.13563449,14.3850363 4.99413809,16.0358289 C4.99335309,16.0917181 4.99211017,16.1475407 4.99211017,16.2036295 C4.99211017,16.2389594 4.98844684,16.2733578 4.98157808,16.3065587 C4.98151266,16.3106838 4.981251,16.3146759 4.981251,16.318801 C4.981251,16.5943878 4.76164702,16.8178113 4.4906255,16.8178113 C4.21960397,16.8178113 4,16.5943878 4,16.318801 C4,16.2100168 4.00536417,16.1025632 4.01334501,15.9958416 C4.11801179,9.66300171 8.9895959,4.51507843 15.0518954,4.26923269 L15.0518954,2.4990103 C15.0518954,2.22342354 15.2714994,2 15.5425209,2 C15.8135424,2 16.0331464,2.22342354 16.0331464,2.4990103 L16.0331464,4.7590612 C16.0331464,5.03464795 15.8135424,5.25807149 15.5425209,5.25807149 L15.5054296,5.25807149 C10.7266064,5.25807149 6.68280564,8.59505314 5.40953435,13.1482892 C6.14337926,12.4887972 7.1064444,12.0873268 8.1604388,12.0873268 C9.34559376,12.0873268 10.4779574,12.6037027 11.2670795,13.5041168 Z M27,16.203696 C27,16.2166703 26.9990187,16.2294449 26.9981029,16.2421531 C26.9985608,16.2677689 27,16.2931186 27,16.318801 C27,16.5943878 26.780396,16.8178113 26.5093745,16.8178113 C26.238353,16.8178113 26.018749,16.5943878 26.018749,16.318801 C26.018749,14.5358705 24.5925988,13.0853474 22.8395612,13.0853474 C21.0865236,13.0853474 19.6603734,14.5358705 19.6603734,16.318801 C19.6603734,16.5943878 19.4407694,16.8178113 19.1697479,16.8178113 C18.8987264,16.8178113 18.6791224,16.5943878 18.6791224,16.318801 C18.6791224,14.5358705 17.2529722,13.0853474 15.4999346,13.0853474 C13.746897,13.0853474 12.3207468,14.5358705 12.3207468,16.318801 C12.3207468,16.5943878 12.1011428,16.8178113 11.8301213,16.8178113 C11.5590998,16.8178113 11.3394958,16.5943878 11.3394958,16.318801 C11.3394958,13.985562 13.2059006,12.0873268 15.4999346,12.0873268 C17.0866829,12.0873268 18.4682843,12.9957251 19.1697479,14.3278165 C19.8712115,12.9957251 21.2528783,12.0873268 22.8395612,12.0873268 C23.903041,12.0873268 24.874087,12.4957168 25.6104178,13.1657879 C25.2671762,11.9235849 24.7110031,10.7506446 23.955309,9.68988173 C22.6329097,7.83362997 20.8226325,6.48131206 18.7202695,5.77910478 C18.4628547,5.69314194 18.3226666,5.41116785 18.407185,5.14935378 C18.4917035,4.88753971 18.7687433,4.7448893 19.0264198,4.83091868 C21.3263413,5.5991284 23.3054592,7.07679768 24.7498606,9.10430979 C26.221868,11.1706116 27,13.6254761 27,16.203696 Z M19.142927,23.1357474 C19.4139486,23.1357474 19.6335525,23.359171 19.6335525,23.6347577 C19.6335525,24.938971 18.5903519,26 17.3079877,26 C16.0256889,26 14.9824882,24.938971 14.9824882,23.6347577 L14.9824882,14.4525691 C14.9824882,14.1769823 15.2020922,13.9535588 15.4731137,13.9535588 C15.7441352,13.9535588 15.9637392,14.1769823 15.9637392,14.4525691 L15.9637392,23.6347577 C15.9637392,24.3886625 16.5667507,25.0019794 17.3079877,25.0019794 C18.0492247,25.0019794 18.6523015,24.3886625 18.6523015,23.6347577 C18.6523015,23.359171 18.8719055,23.1357474 19.142927,23.1357474 Z" id="Combined-Shape"></path>
        </g>
    </g>
</svg>