<?xml version="1.0" encoding="UTF-8" standalone="no"?>
<svg width="30px" height="30px" viewBox="0 0 30 30" version="1.1" xmlns="http://www.w3.org/2000/svg" xmlns:xlink="http://www.w3.org/1999/xlink">
    <!-- Generator: Sketch 43.2 (39069) - http://www.bohemiancoding.com/sketch -->
    <title>icon/icon_tidal</title>
    <desc>Created with Sketch.</desc>
    <defs></defs>
    <g id="Symbols" stroke="none" stroke-width="1" fill="none" fill-rule="evenodd">
        <g id="icon/icon_tidal" fill-rule="nonzero" fill="#6B7586">
            <path d="M26.5050826,12.553182 C25.172501,12.553182 24.5087837,11.7741953 23.9231974,11.0869453 C23.3911282,10.4624251 22.9707124,9.96904963 22.1015714,9.96904963 C21.2322985,9.96904963 20.8120146,10.4623605 20.2798794,11.0869453 C19.6942931,11.7741953 19.0305099,12.553182 17.6979942,12.553182 C16.3660725,12.553182 15.7028172,11.7741307 15.1175608,11.0868161 C14.5858215,10.4622959 14.1658016,9.96904963 13.2973865,9.96904963 C12.4285755,9.96904963 12.0084896,10.4623605 11.4765524,11.0868807 C10.8911641,11.7741953 10.2276448,12.553182 8.8954591,12.553182 C7.56353735,12.553182 6.90028203,11.7741307 6.31502569,11.0868161 C5.78335241,10.4622959 5.36339849,9.96904963 4.49504939,9.96904963 C4.221723,9.96904963 4.00013198,9.75211172 4.00013198,9.48452482 C4.00013198,9.21693791 4.221723,9 4.49504939,9 C5.82690515,9 6.49016047,9.7790513 7.07541681,10.4663659 C7.60715608,11.0908861 8.02711,11.5841324 8.8954591,11.5841324 C9.76427012,11.5841324 10.184356,11.0908215 10.7162933,10.4663013 C11.3016816,9.7789867 11.9652009,9 13.2973865,9 C14.6293083,9 15.2926296,9.7790513 15.87782,10.4663659 C16.4096252,11.0908861 16.8295791,11.5841324 17.6979282,11.5841324 C18.5672012,11.5841324 18.987485,11.0908215 19.5196202,10.4662367 C20.1052065,9.7789867 20.7689898,9 22.1015054,9 C23.4340211,9 24.0977383,9.7789867 24.6833246,10.4662367 C25.2154598,11.0908215 25.6358096,11.5841324 26.5050166,11.5841324 C26.778409,11.5841324 26.999934,11.8010703 26.999934,12.0686572 C26.999934,12.3362441 26.778475,12.553182 26.5050826,12.553182 Z M26.5050826,16.7766233 C25.172501,16.7766233 24.5087837,15.9976366 23.9231974,15.3103866 C23.3911282,14.6858664 22.9707124,14.1924909 22.1015714,14.1924909 C21.2322985,14.1924909 20.8120146,14.6858018 20.2798794,15.3103866 C19.6942931,15.9976366 19.0305099,16.7766233 17.6979942,16.7766233 C16.3660725,16.7766233 15.7028172,15.997572 15.1175608,15.3102574 C14.5858215,14.6857372 14.1658016,14.1924909 13.2973865,14.1924909 C13.0240602,14.1924909 12.8024691,13.975553 12.8024691,13.7079661 C12.8024691,13.4403792 13.0240602,13.2234413 13.2973865,13.2234413 C14.6293083,13.2234413 15.2926296,14.0024926 15.87782,14.6898072 C16.4096252,15.3143274 16.8295791,15.8075737 17.6979282,15.8075737 C18.5672012,15.8075737 18.987485,15.3142628 19.5196202,14.689678 C20.1052065,14.002428 20.7689898,13.2234413 22.1015054,13.2234413 C23.4340211,13.2234413 24.0977383,14.002428 24.6833246,14.689678 C25.2154598,15.3142628 25.6358096,15.8075737 26.5050166,15.8075737 C26.778409,15.8075737 26.999934,16.0245116 26.999934,16.2920985 C26.999934,16.5596854 26.778475,16.7766233 26.5050826,16.7766233 Z M8.8954591,16.7766233 C7.56353735,16.7766233 6.90028203,15.997572 6.31502569,15.3102574 C5.78328642,14.6857372 5.3633325,14.1924909 4.4949834,14.1924909 C4.22165701,14.1924909 4.00006599,13.975553 4.00006599,13.7079661 C4.00006599,13.4403792 4.22165701,13.2234413 4.4949834,13.2234413 C5.82683916,13.2234413 6.49009448,14.0024926 7.07535082,14.6898072 C7.60709009,15.3143274 8.02704401,15.8075737 8.89539311,15.8075737 C9.1687195,15.8075737 9.39031052,16.0245116 9.39031052,16.2920985 C9.39031052,16.5596854 9.16878549,16.7766233 8.8954591,16.7766233 Z M26.5050826,21 C25.1725669,21 24.5087837,20.2210133 23.9231974,19.5337633 C23.3911282,18.9092431 22.9707124,18.4158676 22.1015714,18.4158676 C21.828179,18.4158676 21.606654,18.1989297 21.606654,17.9313428 C21.606654,17.6637559 21.828179,17.446818 22.1015714,17.446818 C23.434087,17.446818 24.0978043,18.2258047 24.6833906,18.9130547 C25.2155258,19.5376395 25.6358756,20.0309504 26.5050826,20.0309504 C26.778475,20.0309504 27,20.2478883 27,20.5154752 C27,20.7830621 26.778475,21 26.5050826,21 Z M17.6979282,21 C16.3660065,21 15.7027512,20.2209487 15.1174948,19.5336341 C14.5857556,18.9091139 14.1657356,18.4158676 13.2973206,18.4158676 C12.4285095,18.4158676 12.0084236,18.9091785 11.4764864,19.5336987 C10.8910981,20.2210133 10.2275788,21 8.89539311,21 C7.56347137,21 6.90021604,20.2209487 6.3149597,19.5336341 C5.78322043,18.9091139 5.36326651,18.4158676 4.49491741,18.4158676 C4.22159102,18.4158676 4,18.1989297 4,17.9313428 C4,17.6637559 4.22159102,17.446818 4.49491741,17.446818 C5.82677317,17.446818 6.49002849,18.2258693 7.07528483,18.9131839 C7.6070241,19.5377041 8.02697802,20.0309504 8.89532712,20.0309504 C9.76413814,20.0309504 10.184224,19.5376395 10.7161613,18.9131193 C11.3015496,18.2258047 11.9650689,17.446818 13.2972546,17.446818 C14.6291763,17.446818 15.2924976,18.2258693 15.877688,18.9131839 C16.4094932,19.5377041 16.8294472,20.0309504 17.6977963,20.0309504 C17.9711886,20.0309504 18.1927137,20.2478883 18.1927137,20.5154752 C18.1927137,20.7830621 17.9713206,21 17.6979282,21 Z" id="Combined-Shape"></path>
        </g>
    </g>
</svg>