<?xml version="1.0" encoding="UTF-8" standalone="no"?>
<svg width="40px" height="40px" viewBox="0 0 40 40" version="1.1" xmlns="http://www.w3.org/2000/svg" xmlns:xlink="http://www.w3.org/1999/xlink">
    <!-- Generator: Sketch 43.2 (39069) - http://www.bohemiancoding.com/sketch -->
    <title>icon/icon_bikini</title>
    <desc>Created with Sketch.</desc>
    <defs></defs>
    <g id="Symbols" stroke="none" stroke-width="1" fill="none" fill-rule="evenodd">
        <g id="icon/icon_bikini" fill-rule="nonzero" fill="#FF7485">
            <path d="M13.3947529,18.7143164 C15.5861769,18.7143164 17.6159658,17.4934863 18.7879394,15.5000586 L22.2120606,15.5000586 C23.3840342,17.4934863 25.4138911,18.7143164 27.6052471,18.7143164 C31.1312997,18.7143164 34,15.8304395 34,12.2857324 C34.000068,10.0823047 32.7856627,8.04177734 30.8027255,6.86387695 L30.8027255,3 L29.3816693,3 L29.3816693,6.98979492 L22.3371799,14.071416 L18.6626841,14.071416 L11.6183987,6.98979492 L11.6183987,3 L10.1973425,3 L10.1973425,6.86387695 C8.21440534,8.04177734 7,10.0823047 7,12.2857324 C7,15.8304395 9.86870028,18.7143164 13.3947529,18.7143164 Z M30.2124208,8.17494141 C31.6840007,9.10592773 32.5789438,10.6410742 32.5789438,12.2857324 C32.5789438,15.0427344 30.34774,17.2857422 27.6052471,17.2857422 C25.969448,17.2857422 24.4424484,16.3859961 23.5160895,14.9066992 L30.2124208,8.17494141 Z M10.7875792,8.17494141 L17.4838425,14.9066309 C16.5574836,16.3859961 15.030416,17.2856738 13.3946849,17.2856738 C10.652192,17.2856738 8.42098821,15.042666 8.42098821,12.2856641 C8.42105621,10.6410742 9.3159993,9.10592773 10.7875792,8.17494141 Z M32.5789438,22.6428613 C32.9713016,22.6428613 33.2894719,22.9626465 33.2896759,23.3572168 L33.2896759,26.2143652 L33.2896759,28.3572266 C33.2896759,28.605166 33.1616326,28.8354687 32.9515817,28.9654883 C32.9285979,28.979502 30.6419064,30.3993262 28.3911867,32.1843945 C27.0866819,33.2189453 24.0526745,35.7870703 24.0526745,37.2857129 C24.0526745,37.6802148 23.7345043,38 23.3421464,38 L17.6579216,38 C17.2654957,38 16.9473935,37.6802148 16.9473935,37.2857129 C16.9473935,36.7864844 16.5246398,35.2899609 12.6090173,32.1843262 C10.3582296,30.3992578 8.07147013,28.9795703 8.04862225,28.9654199 C7.8385714,28.8354687 7.71052811,28.605166 7.71052811,28.3571582 L7.71052811,26.2142969 L7.71052811,23.3571484 C7.71052811,22.9626465 8.02869836,22.6428613 8.42105621,22.6428613 L32.5789438,22.6428613 Z M31.8684157,27.9625195 L31.8684837,27.9625195 L31.8684837,26.9285156 L21.2105621,26.9285156 L21.2105621,28.0611621 L22.4236075,29.280625 L21.418709,30.2908398 L20.500102,29.367373 L19.581563,30.2908398 L18.5766645,29.280625 L19.7895739,28.0612988 L19.7895739,26.928584 L9.13165232,26.928584 L9.13165232,27.9625195 C9.86190031,28.4299609 11.6584505,29.6118262 13.4795485,31.0552344 C16.2948691,33.2866895 17.8721204,35.1012207 18.2684902,36.5714258 L22.7317138,36.5714258 C23.1280836,35.1012207 24.7053349,33.2867578 27.5206555,31.0552344 C29.3416175,29.6118262 31.1381677,28.4299609 31.8684157,27.9625195 Z M31.8684157,25.5000098 L31.8684157,24.0714355 L9.13158432,24.0714355 L9.13158432,25.5000098 L31.8684157,25.5000098 Z" id="Combined-Shape"></path>
        </g>
    </g>
</svg>