<?xml version="1.0" encoding="UTF-8" standalone="no"?>
<svg width="40px" height="40px" viewBox="0 0 40 40" version="1.1" xmlns="http://www.w3.org/2000/svg" xmlns:xlink="http://www.w3.org/1999/xlink">
    <!-- Generator: Sketch 43.2 (39069) - http://www.bohemiancoding.com/sketch -->
    <title>icon/icon_slippers</title>
    <desc>Created with Sketch.</desc>
    <defs></defs>
    <g id="Symbols" stroke="none" stroke-width="1" fill="none" fill-rule="evenodd">
        <g id="icon/icon_slippers" fill-rule="nonzero" fill="#2EB2C7">
            <path d="M16.825781,3.89373914 C15.6087295,3.03615978 14.0781282,2.78210636 12.6255995,3.1941977 L6.73237533,4.86880329 C4.67415418,5.45384179 3,7.58526643 3,9.62007922 L3,14.0350027 C3,14.6886237 3.08877613,15.3344919 3.26255069,15.9541198 C3.37714116,16.3608438 3.54776763,16.8444995 3.74483806,17.4050869 C3.75617118,17.4378872 3.76876354,17.473073 3.78009666,17.5058733 L3.87265051,17.7706614 C4.20823688,18.7308163 4.57719301,19.8537801 4.76293032,20.9051795 L4.81455899,21.1968042 C4.85863225,21.5021454 4.88885391,21.8015229 4.88885391,22.0842021 L4.88885391,31.2611362 C4.88885391,34.4212982 7.6037666,36.9958254 10.9401122,36.9994036 L11.416733,37 L11.4236588,37 C13.0405178,37 14.5604155,36.4042269 15.7044314,35.3218162 C16.8503361,34.2382128 17.4812133,32.7961913 17.4812133,31.2623289 L17.4812133,22.0842021 C17.4812133,21.7705117 17.5001018,21.4341593 17.5265458,21.0900541 L17.5441751,20.8926558 C17.6392474,19.8191907 17.8533175,18.528647 18.1473491,17.2571872 C18.2531249,16.8009645 18.3614192,16.3709821 18.4665654,15.994673 C18.648525,15.3434374 18.7410789,14.6856419 18.7410789,14.0397737 L18.7410789,7.50356381 C18.7404493,6.06690965 18.0428325,4.7513185 16.825781,3.89373914 Z M16.8566323,17.2667291 C16.8503361,17.2941621 16.8459288,17.3209988 16.8402622,17.3484318 C16.7672265,17.6800132 16.6979686,18.0229257 16.6324883,18.3729946 C16.6243033,18.4171259 16.6154886,18.4612573 16.6079332,18.5053886 C16.5411937,18.8697704 16.4782319,19.237134 16.425344,19.6056904 L12.3769004,14.0522974 C12.2566434,13.8876995 12.0664988,13.7851239 11.8549471,13.7714074 L11.5036203,13.770811 L5.77472639,19.6367016 C5.60347031,18.983677 5.39380752,18.336616 5.18351512,17.7277228 L10.554786,12.1773117 L10.554786,11.0465951 C10.554786,10.8241493 10.7071536,10.6046853 10.9621488,10.4597675 C11.365734,10.2289725 11.7453936,10.3852213 11.8895761,10.462153 C12.1577934,10.605878 12.4436399,10.9142011 12.4436399,11.3489544 L12.4436399,12.1582279 L16.8566323,17.2667291 Z M16.2219774,31.2617325 C16.2219774,32.4771336 15.7220607,33.6191812 14.8147812,34.477357 C13.9087609,35.3349363 12.7043018,35.8066646 11.4236588,35.8066646 L11.4186219,35.8066646 L10.9420011,35.8060682 C8.29886484,35.8030864 6.14871947,33.764099 6.14871947,31.2605398 L6.14871947,22.0842021 C6.14871947,21.7561988 6.11597933,21.4156718 6.06812837,21.0709703 C6.11157201,21.0345917 6.15564527,21.0065624 6.19720005,20.9630274 L11.744764,15.2832041 L15.8372808,20.8968304 L15.8870206,20.9564673 C15.990278,21.0656029 16.1162016,21.1580402 16.2534583,21.2439174 C16.2351993,21.5331566 16.2238662,21.8158358 16.2238662,22.0842021 L16.2238662,31.2617325 L16.2219774,31.2617325 Z M17.4812133,14.0397737 C17.4812133,14.5824699 17.4031407,15.13769 17.2488843,15.6899281 C17.2388104,15.7251139 17.2287365,15.7668598 17.2192922,15.802642 L13.7041351,11.7330164 L13.7041351,11.3495508 C13.7041351,10.5563794 13.2464028,9.81926663 12.5103794,9.42447002 C11.808985,9.04875722 10.9885928,9.05412455 10.3149016,9.43759014 C9.67772819,9.80018281 9.29680932,10.4019196 9.29680932,11.0465951 L9.29680932,11.7133362 L4.73207904,16.4306191 C4.63134016,16.1378016 4.54382326,15.8724172 4.48023185,15.6463932 C4.33416048,15.1269553 4.25986556,14.5848554 4.25986556,14.0344064 L4.25986556,9.61948285 C4.25986556,8.09993332 5.55813781,6.4473934 7.09440566,6.01085091 L12.9870002,4.33624532 C14.0554619,4.03388597 15.17933,4.22054963 16.0740171,4.85031584 C16.9680747,5.48067842 17.4812133,6.4473934 17.4812133,7.50296744 C17.4812133,7.50296744 17.4812133,14.0397737 17.4812133,14.0397737 Z M33.2669951,4.86820692 C35.3252162,5.45324542 37,7.58467006 37,9.61948285 L37,14.0344064 C37,14.6880274 36.9112239,15.3338955 36.7368197,15.9535235 C36.6228588,16.3602475 36.4516027,16.8439031 36.2545323,17.4044905 C36.2469769,17.4277489 36.2381623,17.4522001 36.2299772,17.4754585 L36.1267199,17.7706614 C35.7911335,18.7290272 35.422807,19.8502019 35.2364401,20.9051795 L35.1848114,21.197997 C35.1413678,21.5033382 35.1111461,21.8021193 35.1111461,22.0842021 L35.1111461,31.2605398 C35.1111461,34.4212982 32.396863,36.995229 29.0598878,36.9988073 L28.583267,36.9994036 L28.5763412,36.9994036 C26.9594822,36.9994036 25.4395845,36.4036305 24.2955686,35.3212198 C23.1496639,34.23702 22.5187867,32.7955949 22.5187867,31.2617325 L22.5187867,22.0842021 C22.5187867,21.7120675 22.493602,21.3101144 22.4570841,20.8980231 L22.4558249,20.8926558 C22.360123,19.8185943 22.1460529,18.5304361 21.8539101,17.2625545 C21.7481343,16.8039464 21.6385808,16.3721749 21.5334346,15.994673 C21.3508454,15.3422447 21.2589211,14.6844491 21.2589211,14.0397737 L21.2589211,7.50356381 C21.2589211,6.06690965 21.9565378,4.7513185 23.1735894,3.89373914 C24.3900113,3.03556341 25.9218718,2.78031725 27.3744005,3.19360133 L33.2669951,4.86820692 Z M22.5181571,7.50356381 L22.5175275,14.0397737 C22.5175275,14.5818736 22.5956001,15.1370936 22.7498565,15.6899281 C22.7599304,15.7257103 22.7700043,15.7680525 22.7800781,15.8044311 L26.2952353,11.7330164 L26.2952353,11.3495508 C26.2952353,10.5563794 26.7529675,9.81926663 27.4889909,9.42447002 C28.1903854,9.04875722 29.0120368,9.05412455 29.6850984,9.43759014 C30.3229014,9.80018281 30.7031907,10.4019196 30.7031907,11.0465951 L30.7031907,11.7133362 L35.267921,16.4306191 C35.3686598,16.1378016 35.4568064,15.8724172 35.5203978,15.6463932 C35.6664691,15.1269553 35.7407641,14.5842591 35.7407641,14.0344064 L35.7407641,9.61948285 C35.7407641,8.09993332 34.4418622,6.4473934 32.9055943,6.01085091 L27.0129998,4.33624532 C26.678043,4.24142256 26.3367901,4.19430937 25.9993148,4.19430937 C25.2614026,4.19430937 24.5392308,4.41854431 23.9253532,4.85091221 C23.0306661,5.48067842 22.5181571,6.44798977 22.5181571,7.50356381 Z M23.3926964,18.5119487 C23.4594359,18.873945 23.5217681,19.2401159 23.5740264,19.6062867 L27.793726,13.8173279 L28.1425344,13.7714074 C28.1595341,13.7702147 28.1765338,13.7696183 28.1929038,13.7696183 C28.3849373,13.7696183 28.5675265,13.8447609 28.6997463,13.9801367 L34.224644,19.637298 C34.3965297,18.9842733 34.6061925,18.3378088 34.8158553,17.7283191 L29.4439547,12.1779081 L29.4439547,11.0471915 C29.4439547,10.8247456 29.2922168,10.605878 29.0372215,10.4603639 C28.6336364,10.2289725 28.2539768,10.3852213 28.1097943,10.4627493 C27.8422066,10.6064744 27.5557304,10.9147974 27.5557304,11.3495508 L27.5557304,12.1588242 L23.1433677,17.2667291 C23.1502935,17.2989331 23.1559601,17.331137 23.1628859,17.3639374 C23.2334031,17.687766 23.3007722,18.0217329 23.3649932,18.3628563 C23.3738079,18.4129513 23.3838818,18.46245 23.3926964,18.5119487 Z M33.8519101,31.2611362 L33.8525398,22.0847984 C33.8525398,21.7567952 33.8852799,21.4156718 33.9331309,21.0709703 C33.8877984,21.0328026 33.8418363,21.0029841 33.797763,20.9564673 L28.2571249,15.2832041 L24.1148682,20.9570637 C24.0109813,21.0656029 23.8856873,21.1586366 23.7484306,21.2439174 C23.7666895,21.5331566 23.7780226,21.8152394 23.7780226,22.0842021 L23.7780226,31.2623289 C23.7780226,32.4771336 24.2779393,33.6191812 25.1852188,34.4779533 C26.0912391,35.3349363 27.2956982,35.807261 28.5763412,35.807261 L28.5813781,35.807261 L29.0579989,35.8066646 C31.7017648,35.8036828 33.8519101,33.7646954 33.8519101,31.2611362 Z" id="Combined-Shape"></path>
        </g>
    </g>
</svg>