<?xml version="1.0" encoding="UTF-8" standalone="no"?>
<svg width="40px" height="40px" viewBox="0 0 40 40" version="1.1" xmlns="http://www.w3.org/2000/svg" xmlns:xlink="http://www.w3.org/1999/xlink">
    <!-- Generator: Sketch 43.2 (39069) - http://www.bohemiancoding.com/sketch -->
    <title>icon/icon_lotion</title>
    <desc>Created with Sketch.</desc>
    <defs></defs>
    <g id="Symbols" stroke="none" stroke-width="1" fill="none" fill-rule="evenodd">
        <g id="icon/icon_lotion" fill-rule="nonzero" fill="#F6A623">
            <path d="M14.6288,14.8 C16.2674,14.8 17.6,16.1332 17.6,17.7712 L17.6,34.0288 C17.6,35.6668 16.2668,37 14.6288,37 L4.9712,37 C3.3332,37 2,35.6668 2,34.0288 L2,17.7712 C2,16.1332 3.3332,14.8 4.9712,14.8 L6.8,14.8 L6.8,8.8 C6.8,8.4682 7.0688,8.2 7.4,8.2 L12.2,8.2 C12.5312,8.2 12.8,8.4682 12.8,8.8 L12.8,14.8 L14.6288,14.8 Z M11.6,9.4 L8,9.4 L8,11.8 L11.6,11.8 L11.6,9.4 Z M8,13 L8,14.8 L11.6,14.8 L11.6,13 L8,13 Z M16.4,34.0288 L16.4,17.7712 C16.4,16.7944 15.605,16 14.6288,16 L12.2,16 L7.4,16 L4.9712,16 C3.9944,16 3.2,16.7944 3.2,17.7712 L3.2,34.0288 C3.2,35.0056 3.9944,35.8 4.9712,35.8 L14.6288,35.8 C15.6056,35.8 16.4,35.0056 16.4,34.0288 Z M9.8,11.2 C9.46862915,11.2 9.2,10.9313708 9.2,10.6 C9.2,10.2686292 9.46862915,10 9.8,10 C10.1313708,10 10.4,10.2686292 10.4,10.6 C10.4,10.9313708 10.1313708,11.2 9.8,11.2 Z M38,6.4 C38,6.6526 37.955,6.9118 37.8662,7.1704 L33.2,30.4594 L33.2,36.4 C33.2,36.7318 32.9312,37 32.6,37 L23.6,37 C23.2688,37 23,36.7318 23,36.4 L23,30.4522 L18.8582,6.9058 C18.8534,6.8878 18.8456,6.838 18.8384,6.7876 L18.7916,6.4966 C18.7772,6.409 18.782,6.3214 18.8054,6.2386 C18.8882,4.99 19.931,4 21.2,4 C21.9158,4 22.5602,4.315 23,4.8142 C23.4398,4.315 24.0842,4 24.8,4 C25.5158,4 26.1602,4.315 26.6,4.8142 C27.0398,4.315 27.6842,4 28.4,4 C29.1158,4 29.7602,4.315 30.2,4.8142 C30.6398,4.315 31.2842,4 32,4 C32.7158,4 33.3602,4.315 33.8,4.8142 C34.2398,4.315 34.8842,4 35.6,4 C36.9236,4 38,5.0764 38,6.4 Z M20,6.4 C20,6.4144 19.9994,6.4294 19.9982,6.4438 L20.0336,6.6682 L20.303,8.2 L36.4364,8.2 L36.698,6.8938 C36.704,6.8644 36.7124,6.835 36.7226,6.8068 C36.7748,6.6628 36.8,6.5296 36.8,6.4 C36.8,5.7382 36.2618,5.2 35.6,5.2 C34.9382,5.2 34.4,5.7382 34.4,6.4 C34.4,6.7318 34.1312,7 33.8,7 C33.4688,7 33.2,6.7318 33.2,6.4 C33.2,5.7382 32.6618,5.2 32,5.2 C31.3382,5.2 30.8,5.7382 30.8,6.4 C30.8,6.7318 30.5312,7 30.2,7 C29.8688,7 29.6,6.7318 29.6,6.4 C29.6,5.7382 29.0618,5.2 28.4,5.2 C27.7382,5.2 27.2,5.7382 27.2,6.4 C27.2,6.7318 26.9312,7 26.6,7 C26.2688,7 26,6.7318 26,6.4 C26,5.7382 25.4618,5.2 24.8,5.2 C24.1382,5.2 23.6,5.7382 23.6,6.4 C23.6,6.7318 23.3312,7 23,7 C22.6688,7 22.4,6.7318 22.4,6.4 C22.4,5.7382 21.8618,5.2 21.2,5.2 C20.5382,5.2 20,5.7382 20,6.4 Z M24.2,31 L24.2,32.8 L32,32.8 L32,31 L24.2,31 Z M32.1086,29.8 L36.1958,9.4 L20.5142,9.4 L24.1034,29.8 L32.1086,29.8 Z M24.2,35.8 L32,35.8 L32,34 L24.2,34 L24.2,35.8 Z M14.6,25 C14.9312,25 15.2,25.2682 15.2,25.6 C15.2,25.9318 14.9312,26.2 14.6,26.2 L13.3454,26.2 C13.2536,26.7454 13.04,27.2494 12.731,27.6826 L13.6184,28.57 C13.853,28.8046 13.853,29.1838 13.6184,29.4184 C13.5014,29.5354 13.3478,29.5942 13.1942,29.5942 C13.0406,29.5942 12.887,29.5354 12.77,29.4184 L11.8826,28.531 C11.4494,28.84 10.9454,29.0536 10.4,29.146 L10.4,30.4 C10.4,30.7318 10.1312,31 9.8,31 C9.4688,31 9.2,30.7318 9.2,30.4 L9.2,29.146 C8.6546,29.0536 8.1506,28.84 7.7174,28.531 L6.83,29.4184 C6.713,29.5354 6.5594,29.5942 6.4058,29.5942 C6.2522,29.5942 6.0986,29.5354 5.9816,29.4184 C5.747,29.1838 5.747,28.8046 5.9816,28.57 L6.8684,27.6826 C6.56,27.2494 6.3464,26.7454 6.254,26.2 L5,26.2 C4.6688,26.2 4.4,25.9318 4.4,25.6 C4.4,25.2682 4.6688,25 5,25 L6.254,25 C6.3464,24.4546 6.56,23.9506 6.869,23.5174 L5.9816,22.63 C5.747,22.3954 5.747,22.0162 5.9816,21.7816 C6.2162,21.547 6.596,21.547 6.83,21.7816 L7.7174,22.669 C8.1506,22.36 8.6546,22.1464 9.2,22.054 L9.2,20.8 C9.2,20.4682 9.4688,20.2 9.8,20.2 C10.1312,20.2 10.4,20.4682 10.4,20.8 L10.4,22.054 C10.9454,22.1464 11.4494,22.36 11.8832,22.669 L12.7706,21.7816 C13.0046,21.547 13.3844,21.547 13.619,21.7816 C13.8536,22.0162 13.8536,22.3954 13.619,22.63 L12.7316,23.5174 C13.04,23.9506 13.2536,24.4546 13.346,25 L14.6,25 Z M9.8,28 C11.1236,28 12.2,26.9236 12.2,25.6 C12.2,24.2764 11.1236,23.2 9.8,23.2 C8.4764,23.2 7.4,24.2764 7.4,25.6 C7.4,26.9236 8.4764,28 9.8,28 Z M33.2,17.2 C33.5312,17.2 33.8,17.4682 33.8,17.8 C33.8,18.1318 33.5312,18.4 33.2,18.4 L31.9454,18.4 C31.8536,18.9454 31.64,19.4494 31.331,19.8826 L32.2184,20.77 C32.453,21.0046 32.453,21.3838 32.2184,21.6184 C32.1014,21.7354 31.9478,21.7942 31.7942,21.7942 C31.6406,21.7942 31.487,21.7354 31.37,21.6184 L30.4826,20.731 C30.0494,21.04 29.5454,21.2536 29,21.346 L29,22.6 C29,22.9318 28.7312,23.2 28.4,23.2 C28.0688,23.2 27.8,22.9318 27.8,22.6 L27.8,21.346 C27.2546,21.2536 26.7506,21.04 26.3168,20.731 L25.4294,21.6184 C25.3124,21.7354 25.1588,21.7942 25.0052,21.7942 C24.8516,21.7942 24.698,21.7354 24.581,21.6184 C24.3464,21.3838 24.3464,21.0046 24.581,20.77 L25.4684,19.8826 C25.16,19.4494 24.9464,18.9454 24.854,18.4 L23.6,18.4 C23.2688,18.4 23,18.1318 23,17.8 C23,17.4682 23.2688,17.2 23.6,17.2 L24.8546,17.2 C24.9464,16.6546 25.16,16.1506 25.469,15.7174 L24.5816,14.83 C24.347,14.5954 24.347,14.2162 24.5816,13.9816 C24.8162,13.747 25.196,13.747 25.43,13.9816 L26.3174,14.869 C26.7506,14.56 27.2546,14.3464 27.8,14.254 L27.8,13 C27.8,12.6682 28.0688,12.4 28.4,12.4 C28.7312,12.4 29,12.6682 29,13 L29,14.254 C29.5454,14.3464 30.0494,14.56 30.4832,14.869 L31.3706,13.9816 C31.6046,13.747 31.9844,13.747 32.219,13.9816 C32.4536,14.2162 32.4536,14.5954 32.219,14.83 L31.3316,15.7174 C31.64,16.1506 31.8536,16.6546 31.946,17.2 L33.2,17.2 Z M28.4,20.2 C29.7236,20.2 30.8,19.1236 30.8,17.8 C30.8,16.4764 29.7236,15.4 28.4,15.4 C27.0764,15.4 26,16.4764 26,17.8 C26,19.1236 27.0764,20.2 28.4,20.2 Z" id="Combined-Shape"></path>
        </g>
    </g>
</svg>