<?xml version="1.0" encoding="UTF-8" standalone="no"?>
<svg width="40px" height="40px" viewBox="0 0 40 40" version="1.1" xmlns="http://www.w3.org/2000/svg" xmlns:xlink="http://www.w3.org/1999/xlink">
    <!-- Generator: Sketch 43.2 (39069) - http://www.bohemiancoding.com/sketch -->
    <title>icon/icon_pant</title>
    <desc>Created with Sketch.</desc>
    <defs></defs>
    <g id="Symbols" stroke="none" stroke-width="1" fill="none" fill-rule="evenodd">
        <g id="icon/icon_pant" fill-rule="nonzero" fill="#4990E2">
            <path d="M36.9957258,30.1743028 L34.4734765,6.66832669 C34.4327169,6.28834661 34.108053,6 33.7210391,6 L6.27896664,6 C5.89195271,6 5.56728878,6.28834661 5.52652923,6.66832669 L3.00427993,30.1743028 C2.95696253,30.6157371 3.30805963,31 3.75671734,31 L18.6884332,31 C19.0958269,31 19.4300754,30.6815737 19.4446036,30.2796813 L19.8298015,19.6454183 L20.1702042,19.6454183 L20.5554022,30.2796813 C20.5699303,30.6815737 20.9041788,31 21.3115725,31 L36.2432884,31 C36.692955,31 37.0429423,30.6148406 36.9957258,30.1743028 Z M6.95967129,7.4940239 L33.0402335,7.4940239 L33.1684647,8.68924303 L6.83144013,8.68924303 L6.95967129,7.4940239 Z M5.89861145,17.3824701 C7.45715974,17.1523904 8.85156005,18.3506972 8.85156005,19.8944223 C8.85156005,21.6609562 7.057131,22.8964143 5.3738827,22.2723108 C5.47870739,21.2965139 5.78914583,18.4025896 5.89861145,17.3824701 Z M17.9582925,29.5059761 L4.59773615,29.5059761 L4.83291067,27.314741 L18.0376929,27.314741 L17.9582925,29.5059761 Z M21.6845627,19.6454183 L22.7240321,19.6454183 C23.1419184,19.6454183 23.4807069,19.3109562 23.4807069,18.8984064 C23.4807069,18.4858566 23.1419184,18.1513944 22.7240321,18.1513944 L17.2759736,18.1513944 C16.8580873,18.1513944 16.5192988,18.4858566 16.5192988,18.8984064 C16.5192988,19.3109562 16.8580873,19.6454183 17.2759736,19.6454183 L18.315443,19.6454183 L18.0917699,25.8207171 L4.99322484,25.8207171 L5.21134896,23.7876494 C5.55760334,23.8800797 5.91636808,23.9282869 6.27896664,23.9282869 C8.5320415,23.9282869 10.3650105,22.1186255 10.3650105,19.8944223 C10.3650105,17.6702191 8.53194061,15.8605578 6.27896664,15.8605578 C6.20622497,15.8605578 6.13368508,15.8631474 6.06124608,15.8669323 L6.67112597,10.1832669 L33.3287789,10.1832669 L35.0067809,25.8207171 L21.9082358,25.8207171 L21.6845627,19.6454183 Z M22.0417132,29.5059761 L21.9623128,27.314741 L35.1670951,27.314741 L35.4022696,29.5059761 L22.0417132,29.5059761 Z M30.0890001,11.876494 C31.674486,11.876494 32.9643643,13.1499004 32.9643643,14.7151394 C32.9643643,16.2803785 31.674486,17.5537849 30.0890001,17.5537849 C28.5035142,17.5537849 27.2136359,16.2803785 27.2136359,14.7151394 C27.2136359,13.1499004 28.5035142,11.876494 30.0890001,11.876494 Z M30.0890001,16.059761 C30.840025,16.059761 31.4510147,15.4565737 31.4510147,14.7151394 C31.4510147,13.9737052 30.840025,13.3705179 30.0890001,13.3705179 C29.3379751,13.3705179 28.7269855,13.9737052 28.7269855,14.7151394 C28.7269855,15.4565737 29.3379751,16.059761 30.0890001,16.059761 Z M26.9614109,19.8446215 C28.2687432,19.8446215 29.3323253,20.8946215 29.3323253,22.185259 C29.3323253,23.4758964 28.2687432,24.5258964 26.9614109,24.5258964 C25.6540787,24.5258964 24.5904966,23.4758964 24.5904966,22.185259 C24.5904966,20.8946215 25.6540787,19.8446215 26.9614109,19.8446215 Z M26.9614109,23.0318725 C27.4342822,23.0318725 27.8189757,22.6520916 27.8189757,22.185259 C27.8189757,21.7184263 27.4342822,21.3386454 26.9614109,21.3386454 C26.4885396,21.3386454 26.1038462,21.7184263 26.1038462,22.185259 C26.1038462,22.6520916 26.4885396,23.0318725 26.9614109,23.0318725 Z M14.4510544,11.3784861 C15.7583867,11.3784861 16.8219687,12.4284861 16.8219687,13.7191235 C16.8219687,15.009761 15.7583867,16.059761 14.4510544,16.059761 C13.1437221,16.059761 12.08014,15.009761 12.08014,13.7191235 C12.08014,12.4284861 13.1437221,11.3784861 14.4510544,11.3784861 Z M14.4510544,14.5657371 C14.9239257,14.5657371 15.3086192,14.1859562 15.3086192,13.7191235 C15.3086192,13.2522908 14.9239257,12.87251 14.4510544,12.87251 C13.9781831,12.87251 13.5934896,13.2522908 13.5934896,13.7191235 C13.5934896,14.1859562 13.9781831,14.5657371 14.4510544,14.5657371 Z" id="Combined-Shape"></path>
        </g>
    </g>
</svg>