<?xml version="1.0" encoding="UTF-8" standalone="no"?>
<svg width="80px" height="80px" viewBox="0 0 80 80" version="1.1" xmlns="http://www.w3.org/2000/svg" xmlns:xlink="http://www.w3.org/1999/xlink">
    <!-- Generator: Sketch 43.2 (39069) - http://www.bohemiancoding.com/sketch -->
    <title>icon/icon_sun</title>
    <desc>Created with Sketch.</desc>
    <defs></defs>
    <g id="Symbols" stroke="none" stroke-width="1" fill="none" fill-rule="evenodd">
        <g id="icon/icon_sun" fill-rule="nonzero" fill="#FFFFFF">
            <g id="026-sun" transform="translate(5.000000, 5.000000)">
                <path d="M27.761712,16.5445498 C22.8320409,18.4780521 18.9504116,22.2153334 16.8319161,27.0682722 C12.4583643,37.0862072 17.0503373,48.7945321 27.0684622,53.1680839 C31.885124,55.2710051 37.2377725,55.3864834 42.1402834,53.4932466 C42.8737987,53.2100588 43.698671,53.5749171 43.9822387,54.3090022 C44.2656164,55.0428974 43.9003782,55.8675798 43.1664831,56.1509575 C40.517509,57.1737384 37.7534364,57.6840843 34.9937323,57.6840843 C31.9117144,57.6840843 28.8350147,57.0480038 25.9284935,55.7790717 C14.4706881,50.7770367 9.21870337,37.386109 14.2207383,25.9283036 C16.6438839,20.3779365 21.0833419,16.1035289 26.7214574,13.8921569 C32.359193,11.6807849 38.5207595,11.7974028 44.0715065,14.2205484 C55.5291219,19.2225834 60.7812966,32.6137011 55.7792617,44.0713166 C55.4645452,44.7922964 54.6246683,45.1216375 53.9038784,44.8069211 C53.1828986,44.4922047 52.8535574,43.6525177 53.1682738,42.9315378 C57.5418256,32.9136029 52.9496627,21.2052779 42.9317278,16.8317262 C38.0789789,14.7132306 32.691573,14.6110475 27.761712,16.5445498 Z M57.7342262,10.2513607 C58.2903455,9.69505147 59.19233,9.69505147 59.7486393,10.2513607 C60.3049485,10.80748 60.3049485,11.7094646 59.7486393,12.2657738 L55.3129799,16.7012432 C55.0349203,16.9794928 54.6702518,17.1185227 54.3057734,17.1185227 C53.9412949,17.1185227 53.5766265,16.9793029 53.2985668,16.7012432 C52.7422576,16.1451239 52.7422576,15.2431394 53.2985668,14.6868302 L57.7342262,10.2513607 Z M14.6868302,53.2985668 C15.2431394,52.7422576 16.1451239,52.7422576 16.7012432,53.2985668 C17.2575525,53.8546862 17.2575525,54.7566707 16.7012432,55.3129799 L12.2655839,59.7486393 C11.9875242,60.0268889 11.6228558,60.1659187 11.2583773,60.1659187 C10.8938989,60.1659187 10.5292305,60.0266989 10.2511708,59.7486393 C9.69486154,59.19252 9.69486154,58.2905354 10.2511708,57.7342262 L14.6868302,53.2985668 Z M68.575514,33.575514 C69.3622102,33.575514 70,34.2133039 70,35 C70,35.7866961 69.3622102,36.424486 68.575514,36.424486 L62.3026476,36.424486 C61.5159515,36.424486 60.8781617,35.7866961 60.8781617,35 C60.8781617,34.2133039 61.5159515,33.575514 62.3026476,33.575514 L68.575514,33.575514 Z M7.69735236,33.575514 C8.48404847,33.575514 9.12183832,34.2133039 9.12183832,35 C9.12183832,35.7866961 8.48404847,36.424486 7.69735236,36.424486 L1.42448596,36.424486 C0.637789849,36.424486 0,35.7866961 0,35 C0,34.2133039 0.637789849,33.575514 1.42448596,33.575514 L7.69735236,33.575514 Z M55.3131698,53.2985668 L59.7488292,57.7342262 C60.3051385,58.2903455 60.3051385,59.19233 59.7488292,59.7486393 C59.4707695,60.0268889 59.1061011,60.1659187 58.7416227,60.1659187 C58.3771442,60.1659187 58.0124758,60.0266989 57.7344161,59.7486393 L53.2987568,55.3129799 C52.7424475,54.7568606 52.7424475,53.8548761 53.2987568,53.2985668 C53.8548761,52.7422576 54.7568606,52.7422576 55.3131698,53.2985668 Z M14.6868302,16.7014332 L10.2513607,12.2657738 C9.69505147,11.7096545 9.69505147,10.80767 10.2513607,10.2513607 C10.80748,9.69505147 11.7094646,9.69505147 12.2657738,10.2513607 L16.7012432,14.6870201 C17.2575525,15.2431394 17.2575525,16.1451239 16.7012432,16.7014332 C16.4231836,16.9796828 16.0585152,17.1187126 15.6940367,17.1187126 C15.3295582,17.1187126 14.9648898,16.9794928 14.6868302,16.7014332 Z M35,60.8781617 C35.7866961,60.8781617 36.424486,61.5159515 36.424486,62.3026476 L36.424486,68.575514 C36.424486,69.3622102 35.7866961,70 35,70 C34.2133039,70 33.575514,69.3622102 33.575514,68.575514 L33.575514,62.3026476 C33.575514,61.5159515 34.2133039,60.8781617 35,60.8781617 Z M35,9.12183832 C34.2133039,9.12183832 33.575514,8.48404847 33.575514,7.69735236 L33.575514,1.42448596 C33.575514,0.637789849 34.2133039,0 35,0 C35.7866961,0 36.424486,0.637789849 36.424486,1.42448596 L36.424486,7.69735236 C36.424486,8.48404847 35.7866961,9.12183832 35,9.12183832 Z" id="Combined-Shape"></path>
            </g>
        </g>
    </g>
</svg>