<?xml version="1.0" encoding="UTF-8" standalone="no"?>
<svg width="30px" height="30px" viewBox="0 0 30 30" version="1.1" xmlns="http://www.w3.org/2000/svg" xmlns:xlink="http://www.w3.org/1999/xlink">
    <!-- Generator: Sketch 43.2 (39069) - http://www.bohemiancoding.com/sketch -->
    <title>icon/icon_wave</title>
    <desc>Created with Sketch.</desc>
    <defs></defs>
    <g id="Symbols" stroke="none" stroke-width="1" fill="none" fill-rule="evenodd">
        <g id="icon/icon_wave" fill-rule="nonzero" fill="#6B7586">
            <path d="M27.6270975,18.0421545 C27.3399714,17.9412601 27.0285936,18.1009384 26.9314217,18.3986709 C26.6688219,19.202924 26.1813166,19.5939255 25.4409232,19.5939255 C24.7234647,19.5939255 24.0642215,19.0510418 23.8004145,18.2430897 C23.7228307,18.0053932 23.5085698,17.8561855 23.279275,17.8568684 C23.2764218,17.8567546 23.2736235,17.8566977 23.2707704,17.8566408 C23.2684659,17.8566977 23.2662163,17.8567546 23.2639118,17.8568115 C23.0342878,17.8557872 22.8196428,18.0051087 22.7419493,18.2430897 C22.4781423,19.0510987 21.8188991,19.5939255 21.1014955,19.5939255 C20.384037,19.5939255 19.7247938,19.0510418 19.4609868,18.2430897 C19.383403,18.0053932 19.1691421,17.8561855 18.9398473,17.8568684 C18.9369941,17.8567546 18.934141,17.8566977 18.9313427,17.8566408 C18.9290382,17.8566977 18.9267337,17.8567546 18.9244841,17.8568115 C18.6948601,17.8557872 18.4802152,18.0051087 18.4025764,18.2430897 C18.1387694,19.0510987 17.4795263,19.5939255 16.7621227,19.5939255 C16.2022461,19.5939255 15.6787472,19.2623909 15.3500309,18.7332215 C15.3419653,18.7092072 15.3328571,18.6854204 15.3214445,18.662089 C14.2904683,16.5590691 14.3011128,14.5919408 14.8715241,13.0384057 C14.8800836,13.0223582 14.889082,13.006766 14.8962149,12.9896373 C14.8982998,12.9846864 15.1078421,12.4893193 15.5119474,12.0917167 C15.9912773,11.6200794 16.5182329,11.4981298 17.1229918,11.7189252 C17.6728823,11.9196898 17.8275013,12.2185603 17.9017931,12.3621912 C18.0795665,12.7057899 18.3238404,12.7537048 18.4973341,12.7332755 C18.6764244,12.7122772 18.8942517,12.5886203 18.9767737,12.3052282 C19.1734767,11.6788634 19.2361363,10.5357916 18.5045767,9.70348374 C19.5343458,9.53492802 20.6863616,9.80705274 21.7506429,10.8795041 L21.7601351,10.8888367 C21.8424376,10.9678792 22.1396594,11.2166155 22.5104597,11.095804 C22.8409866,10.987967 23.0244664,10.6382794 22.9669095,10.2255967 L22.9627943,10.1959487 L22.9556615,10.1668697 C22.9391461,10.099436 22.5361381,8.4986689 21.2451957,7.09234975 C20.0465967,5.78658359 17.8388591,4.40968486 14.1278385,5.26503966 C12.3103795,5.68392508 10.7233126,6.64996214 9.41075205,8.13629119 C8.37681295,9.30707621 7.52788991,10.8058108 6.84505336,12.5734264 C5.55081883,15.9234854 5.52623782,18.6810956 5.55317817,18.7636663 C5.96754392,20.0330126 6.86601307,20.7320464 8.08304783,20.7320464 C8.92906284,20.7320464 9.71845373,20.2990483 10.2528165,19.591194 C10.7871245,20.2990483 11.5765154,20.7320464 12.4225304,20.7320464 C13.2685454,20.7320464 14.0579363,20.2990483 14.5922991,19.591194 C15.1266619,20.2990483 15.9160528,20.7320464 16.7620678,20.7320464 C17.6080828,20.7320464 18.3974737,20.2990483 18.9317816,19.591194 C19.4661444,20.2990483 20.2555353,20.7320464 21.1015503,20.7320464 C21.9475654,20.7320464 22.7369562,20.2990483 23.2712642,19.591194 C23.805627,20.2990483 24.5950179,20.7320464 25.4410329,20.7320464 C26.6580677,20.7320464 27.5565368,20.0330126 27.9709025,18.7636663 C28.0680195,18.4659338 27.9141138,18.1429351 27.6270975,18.0421545 Z M17.9075542,10.8361986 C17.7831677,10.7671147 17.6436924,10.7024694 17.487153,10.6453357 C17.2306983,10.5517253 16.9756703,10.4974938 16.7250317,10.4813894 C16.89035,10.357448 17.0670809,10.2430669 17.253359,10.1412051 C17.5770822,10.3051514 17.7934829,10.5346535 17.9075542,10.8361986 Z M12.4225304,19.5939255 C11.7050719,19.5939255 11.0458287,19.0510418 10.7820766,18.2430897 C10.7044928,18.0053932 10.4902867,17.8561855 10.2609371,17.8568684 C10.2580839,17.8567546 10.2552307,17.8566977 10.2524325,17.8566408 C10.250128,17.8566977 10.2478235,17.8567546 10.245519,17.8568115 C10.015895,17.8557872 9.80125006,18.0051087 9.72355648,18.2430897 C9.45974948,19.0510987 8.80050631,19.5939255 8.08304783,19.5939255 C7.36794869,19.5939255 6.88938698,19.2279627 6.6208613,18.4783393 C6.63188984,18.3224168 6.82881233,15.7418413 7.86692142,12.9879301 C9.26782001,9.27168065 11.4543236,7.04716635 14.3657477,6.37613024 C16.925356,5.78612834 18.9623982,6.28041427 20.4205793,7.84504604 C20.8272086,8.2813447 21.1329899,8.74592568 21.3575112,9.16003098 C19.6823806,8.1852873 17.7100282,8.31389496 16.0403845,9.59006998 C15.0846327,10.320516 14.3438552,11.3427762 13.8915206,12.5316574 C13.8889418,12.5376894 13.8872957,12.5417298 13.8865824,12.5434369 C13.8841682,12.5493552 13.8824673,12.5553872 13.8802726,12.5613054 C13.757148,12.8891412 13.6546539,13.2287565 13.5770701,13.5791839 C13.2304119,15.1453521 13.3789954,16.7979607 14.0035069,18.4036786 C13.7090833,19.1220036 13.0912658,19.5939255 12.4225304,19.5939255 Z M25.1031536,22.310108 C25.3901699,22.4108887 25.5440756,22.7338874 25.4468489,23.0316198 C25.0324832,24.3009661 24.134014,25 22.9169793,25 C22.0709643,25 21.2815734,24.5670019 20.7472106,23.8591476 C20.2129026,24.5670019 19.4235117,25 18.5774967,25 C17.7314817,25 16.9420908,24.5670019 16.407728,23.8591476 C15.8734201,24.5670019 15.0840292,25 14.2380142,25 C13.3919992,25 12.6026083,24.5670019 12.0682455,23.8591476 C11.5338827,24.5670019 10.7444918,25 9.89847677,25 C9.05246175,25 8.26307087,24.5670019 7.72876293,23.8591476 C7.19440011,24.5670019 6.40500923,25 5.55899422,25 C4.34195945,25 3.4434903,24.3009661 3.02912456,23.0316198 C2.93195272,22.7338874 3.08585843,22.4108887 3.37287474,22.310108 C3.66000079,22.2092705 3.97137865,22.3689489 4.06855049,22.6666244 C4.33115039,23.4708776 4.81865564,23.8618791 5.55904909,23.8618791 C6.27650757,23.8618791 6.93575073,23.3190523 7.19955774,22.5110433 C7.27719645,22.273176 7.49162194,22.1238546 7.72113623,22.124765 C7.72366017,22.1247081 7.72618411,22.1246512 7.72870806,22.1245943 C7.73134174,22.1245943 7.73392055,22.1246512 7.73655423,22.124765 C7.96601365,22.1239684 8.18043914,22.2732329 8.25807785,22.5110433 C8.52182999,23.3189954 9.18107315,23.8618791 9.89853163,23.8618791 C10.6159901,23.8618791 11.2752333,23.3190523 11.5390403,22.5110433 C11.6167339,22.273176 11.8311594,22.1239115 12.0606736,22.124765 C12.0631976,22.1247081 12.0657215,22.1246512 12.0682455,22.1245943 C12.0708792,22.1245943 12.073458,22.1246512 12.0760916,22.124765 C12.3055511,22.1239684 12.5199217,22.2732329 12.5975604,22.5110433 C12.8613674,23.3189954 13.5206106,23.8618791 14.2380691,23.8618791 C14.9554727,23.8618791 15.6147158,23.3190523 15.8785228,22.5110433 C15.9561615,22.2732329 16.170587,22.1239115 16.4001013,22.124765 C16.4026801,22.1247081 16.4052041,22.1246512 16.407728,22.1245943 C16.4103068,22.1245943 16.4129405,22.1246512 16.4155742,22.124765 C16.6449787,22.1239684 16.8594042,22.2732898 16.9370429,22.5110433 C17.20085,23.3189954 17.8600931,23.8618791 18.5775516,23.8618791 C19.2949552,23.8618791 19.9541984,23.3190523 20.2180054,22.5110433 C20.2956441,22.2732329 20.5101245,22.1239115 20.7395839,22.124765 C20.7421078,22.1247081 20.7446318,22.1246512 20.7471557,22.1245943 C20.7497894,22.1245943 20.7523682,22.1246512 20.7550019,22.124765 C20.9844613,22.1239684 21.1988319,22.2732898 21.2764706,22.5110433 C21.5402776,23.3189954 22.1995208,23.8618791 22.9169793,23.8618791 C23.6573727,23.8618791 24.144878,23.4708776 24.4074779,22.6666244 C24.5046497,22.368892 24.8161373,22.2092136 25.1031536,22.310108 Z" id="Combined-Shape"></path>
        </g>
    </g>
</svg>