<?xml version="1.0" encoding="UTF-8" standalone="no"?>
<svg width="40px" height="40px" viewBox="0 0 40 40" version="1.1" xmlns="http://www.w3.org/2000/svg" xmlns:xlink="http://www.w3.org/1999/xlink">
    <!-- Generator: Sketch 43.2 (39069) - http://www.bohemiancoding.com/sketch -->
    <title>icon/icon_glass</title>
    <desc>Created with Sketch.</desc>
    <defs></defs>
    <g id="Symbols" stroke="none" stroke-width="1" fill="none" fill-rule="evenodd">
        <g id="icon/icon_glass" fill-rule="nonzero" fill="#485F79">
            <path d="M39.3333333,15.2763968 C39.702,15.2763968 40,15.5706173 40,15.9323315 C40,16.2940457 39.702,16.5876109 39.3333333,16.5876109 L38.6973333,16.5876109 L38.6973333,21.8298458 C38.6266667,23.1541654 37.6653333,25.8329474 34.5326667,26.744441 C33.946,26.915469 33.334,27 32.7093333,27 C31.9473333,27 31.1673333,26.8735311 30.3946667,26.6212485 C27.022,25.5197239 21.364,23.0073828 21.364,18.553449 C21.3593333,18.516098 21.2953333,17.8326416 21.3626667,16.921148 C20.6133333,16.3412258 19.4253333,16.3340177 18.6653333,16.8995238 C18.736,17.8365733 18.67,18.5508278 18.6633333,18.6163558 C18.6666667,23.0073828 13.0086667,25.5197239 9.636,26.6205932 C8.86333333,26.8728758 8.08333333,26.9993447 7.32133333,26.9993447 C6.69666667,26.9993447 6.084,26.9141584 5.498,26.7437858 C2.36466667,25.8329474 1.404,23.1535101 1.334,21.8645756 L1.33333333,16.5869556 L0.666666667,16.5869556 C0.298666667,16.5869556 0,16.2933904 0,15.9316762 C0,15.569962 0.298666667,15.2763968 0.666666667,15.2763968 L1.41133333,15.2763968 C1.63933333,14.2318815 2.414,13.3570836 3.70133333,12.7240837 C4.68,12.2437639 5.78666667,12 6.99266667,12 L14.6666667,12 L25.3333333,12 L25.3333333,12.0026211 C25.344,12.0026211 25.3533333,12 25.364,12 L33.0373333,12 C34.2433333,12 35.3506667,12.2437639 36.3286667,12.7240837 C37.616,13.3570836 38.3906667,14.2325368 38.6186667,15.2763968 L39.3333333,15.2763968 Z M17.3333333,18.5527937 C17.3393333,18.459744 17.62,15.3930366 16.316,13.9835306 C15.8966667,13.5307326 15.3573333,13.3105587 14.6666667,13.3105587 L6.99266667,13.3105587 C5.996,13.3105587 5.08933333,13.5077978 4.298,13.8970338 C3.21533333,14.4291206 2.66666667,15.1132323 2.66666667,15.9316762 L2.66666667,21.8291905 C2.67266667,21.9065135 2.88066667,24.6160937 5.87666667,25.4869599 C6.91533333,25.7890437 8.07066667,25.7510375 9.216,25.376873 C11.6566667,24.5800533 17.3333333,22.3199948 17.3333333,18.5527937 Z M18.4593333,15.5096763 C19.4293333,15.0712944 20.6013333,15.0758814 21.5673333,15.5227819 C21.7433333,14.7429994 22.0486667,13.9488008 22.5586667,13.3105587 L17.472,13.3105587 C17.978,13.9442139 18.2826667,14.7318597 18.4593333,15.5096763 Z M34.154,25.4869599 C37.15,24.6160937 37.3573333,21.9065135 37.3653333,21.7911843 L37.364,16.0810799 C37.352,16.0312787 37.3333333,15.9847538 37.3333333,15.9316762 C37.3333333,15.8943253 37.3486667,15.8622166 37.3553333,15.8274868 C37.3093333,15.056223 36.768,14.4061858 35.7326667,13.897689 C34.9413333,13.5084531 34.0346667,13.311214 33.038,13.311214 L25.364,13.311214 C24.6733333,13.311214 24.1333333,13.5313879 23.7146667,13.9841859 C22.4106667,15.3936918 22.6906667,18.459744 22.694,18.4905421 C22.6966667,22.3193395 28.374,24.5800533 30.8146667,25.376873 C31.96,25.7510375 33.114,25.7890437 34.154,25.4869599 Z M7.80466667,14.8131143 C8.06533333,15.0693286 8.06533333,15.4841204 7.80466667,15.7396793 L5.138,18.3607968 C5.008,18.4885763 4.83733333,18.5527937 4.66666667,18.5527937 C4.496,18.5527937 4.32533333,18.4892316 4.19533333,18.3607968 C3.93466667,18.1045826 3.93466667,17.690446 4.19533333,17.4342318 L6.862,14.8131143 C7.12266667,14.5569001 7.544,14.5569001 7.80466667,14.8131143 Z M11.5286667,14.8131143 C11.7893333,14.5575554 12.2106667,14.5569001 12.4713333,14.8131143 C12.732,15.0693286 12.732,15.4834651 12.4713333,15.7396793 L7.80466667,20.3266349 C7.67466667,20.4544144 7.504,20.5186318 7.33333333,20.5186318 C7.16266667,20.5186318 6.992,20.4544144 6.862,20.3266349 C6.60133333,20.0704207 6.60133333,19.6562841 6.862,19.4000699 L11.5286667,14.8131143 Z M27.8046667,14.8131143 C28.0653333,15.0693286 28.0653333,15.4841204 27.8046667,15.7396793 L25.138,18.3607968 C25.008,18.4885763 24.8373333,18.5527937 24.6666667,18.5527937 C24.496,18.5527937 24.3253333,18.4885763 24.1953333,18.3607968 C23.9346667,18.1045826 23.9346667,17.690446 24.1953333,17.4342318 L26.862,14.8131143 C27.1226667,14.5569001 27.544,14.5569001 27.8046667,14.8131143 Z M31.5286667,14.8131143 C31.7893333,14.5575554 32.2106667,14.5569001 32.4713333,14.8131143 C32.732,15.0693286 32.732,15.4834651 32.4713333,15.7396793 L27.8046667,20.3266349 C27.6746667,20.4544144 27.504,20.5186318 27.3333333,20.5186318 C27.1626667,20.5186318 26.992,20.4544144 26.862,20.3266349 C26.6013333,20.0704207 26.6013333,19.6562841 26.862,19.4000699 L31.5286667,14.8131143 Z" id="Combined-Shape"></path>
        </g>
    </g>
</svg>