<?xml version="1.0" encoding="UTF-8" standalone="no"?>
<svg width="24px" height="24px" viewBox="0 0 24 24" version="1.1" xmlns="http://www.w3.org/2000/svg" xmlns:xlink="http://www.w3.org/1999/xlink">
    <!-- Generator: Sketch 43.2 (39069) - http://www.bohemiancoding.com/sketch -->
    <title>icon/icon_setting</title>
    <desc>Created with Sketch.</desc>
    <defs></defs>
    <g id="Symbols" stroke="none" stroke-width="1" fill="none" fill-rule="evenodd">
        <g id="icon/icon_setting" fill="#FFFFFF">
            <path d="M12,9.25003813 C13.5640934,9.25003813 14.8210658,10.4752994 14.8210658,12.0000515 C14.8210658,13.5247511 13.5640934,14.7500124 12,14.7500124 C10.4359066,14.7500124 9.17893424,13.5247511 9.17893424,12.0000515 C9.17893424,10.4752994 10.4359066,9.25003813 12,9.25003813 L12,9.25003813 Z M12,8.25003804 C9.88149459,8.25003804 8.15309704,9.93490354 8.15309704,12.0000515 C8.15309704,14.0651995 9.88149459,15.7500125 12,15.7500125 C14.1185054,15.7500125 15.846903,14.0651995 15.846903,12.0000515 C15.846903,9.93490354 14.1185054,8.25003804 12,8.25003804 L12,8.25003804 Z M9.9483256,1.00005051 C9.10472543,1.00005051 8.40959673,1.67772394 8.40959673,2.5000244 L8.40959673,4.83600025 C8.06930247,4.99753105 7.74489472,5.18562493 7.43184985,5.39067508 L5.35610337,4.21880244 C4.62467805,3.80712725 3.67827336,4.05328192 3.25633864,4.76565534 L1.20466424,8.23439417 C0.782406408,8.94739754 1.03486716,9.86996574 1.76570009,10.2812735 L3.82539852,11.4375547 C3.80935046,11.6226563 3.7933024,11.8033482 3.7933024,12.0000515 C3.7933024,12.1910327 3.81171998,12.3757668 3.82539852,12.5625483 L1.76570009,13.718777 C1.03486716,14.1300848 0.782406408,15.052653 1.20466424,15.7656563 L3.25633864,19.2343952 C3.67827336,19.9467686 4.62467805,20.1929233 5.35610337,19.7812481 L7.43184985,18.6171974 C7.74306373,18.8221425 8.06941018,19.001522 8.40959673,19.1641028 L8.40959673,21.5000261 C8.40959673,22.3223791 9.10472543,23 9.9483256,23 L14.0516744,23 C14.8952746,23 15.5904033,22.3223791 15.5904033,21.5000261 L15.5904033,19.1641028 C15.9306975,19.002572 16.2551053,18.8144256 16.5681501,18.6093754 L18.6438966,19.7812481 C19.375322,20.1929233 20.3217266,19.9467686 20.7436614,19.2343952 L22.7953358,15.7656563 C23.2175936,15.052653 22.9651328,14.1300848 22.2342999,13.718777 L20.1746015,12.5625483 C20.1906495,12.3773942 20.2066976,12.1967023 20.2066976,12.0000515 C20.2066976,11.8090703 20.18828,11.6242837 20.1746015,11.4375547 L22.2342999,10.2812735 C22.9651328,9.86996574 23.2175936,8.94739754 22.7953358,8.23439417 L20.7436614,4.76565534 C20.3217266,4.05328192 19.375322,3.80712725 18.6438966,4.21880244 L16.5681501,5.38285315 C16.2569363,5.17796049 15.9305898,4.99858098 15.5904033,4.83600025 L15.5904033,2.5000244 C15.5904033,1.67772394 14.8952746,1.00005051 14.0516744,1.00005051 C13.76841,0.996165789 13.5354977,1.21685981 13.5315126,1.49298981 C13.5274737,1.76911982 13.7538698,1.99616588 14.0371881,2.0000506 C14.0419809,2.00010309 14.0468277,2.00010309 14.0516744,2.0000506 C14.3446861,2.0000506 14.5645661,2.21439258 14.5645661,2.5000244 L14.5645661,5.12504432 C14.5629505,5.32405741 14.682557,5.5051168 14.8691561,5.58596094 C15.3616915,5.79578825 15.8270314,6.05910918 16.25559,6.36720937 C16.4212404,6.48296349 16.6414435,6.49220282 16.8166258,6.39067517 L19.1567883,5.07816521 C19.4097337,4.93584802 19.7156701,5.01852953 19.8620413,5.26568164 L21.9137157,8.73442047 C22.0597638,8.98094261 21.974946,9.27922602 21.7214082,9.42191068 L19.3892159,10.7344206 C19.2130642,10.8322736 19.1125215,11.0220998 19.1327701,11.2188031 C19.1621197,11.4764544 19.1808604,11.7361531 19.1808604,12.0000515 C19.1808604,12.2546056 19.1551727,12.5144093 19.124746,12.7812999 C19.1044975,12.9779507 19.2050402,13.1677769 19.3811919,13.2656299 L21.7214082,14.5781398 C21.974946,14.720877 22.0597638,15.0191079 21.9137157,15.26563 L19.8620413,18.7343689 C19.7156701,18.981521 19.4097337,19.064255 19.1567883,18.9218853 L16.8246498,17.6093753 C16.6479058,17.5101575 16.4276488,17.5224416 16.263614,17.6406631 C15.8357555,17.9487633 15.3663767,18.2023199 14.8691561,18.4140896 C14.682557,18.4949337 14.5629505,18.6759931 14.5645661,18.8750062 L14.5645661,21.5000261 C14.5645661,21.7856579 14.3446861,21.9999999 14.0516744,21.9999999 L9.9483256,21.9999999 C9.65531388,21.9999999 9.43543393,21.7856579 9.43543393,21.5000261 L9.43543393,18.8750062 C9.4370495,18.6759931 9.31744299,18.4949337 9.13084391,18.4140896 C8.6383085,18.2043148 8.17296863,17.9409413 7.74441005,17.6328411 C7.57875961,17.517087 7.35855654,17.5079002 7.18337419,17.6093753 L4.84321169,18.9218853 C4.59026627,19.064255 4.28432994,18.981521 4.13795872,18.7343689 L2.08628432,15.26563 C1.9402362,15.0191079 2.02505397,14.720877 2.27859177,14.5781398 L4.61078409,13.2656299 C4.78693578,13.1677769 4.88747849,12.9779507 4.86722993,12.7812999 C4.83788029,12.5237011 4.8191396,12.2639499 4.8191396,12.0000515 C4.8191396,11.7453924 4.84482727,11.4856413 4.87525396,11.2188031 C4.89550252,11.0220998 4.79495981,10.8322736 4.61880812,10.7344206 L2.27859177,9.42191068 C2.02505397,9.27922602 1.9402362,8.98094261 2.08628432,8.73442047 L4.13795872,5.26568164 C4.28432994,5.01852953 4.59026627,4.93584802 4.84321169,5.07816521 L7.17535017,6.39067517 C7.35209423,6.48989299 7.57235115,6.47760888 7.73638602,6.35943994 C8.16424452,6.05128725 8.63362333,5.79778311 9.13084391,5.58596094 C9.31744299,5.5051168 9.4370495,5.32405741 9.43543393,5.12504432 L9.43543393,2.5000244 C9.43543393,2.21439258 9.65531388,2.0000506 9.9483256,2.0000506 L12,2.0000506 C12.2832644,2.00393532 12.5161767,1.7832413 12.5201618,1.50711129 C12.5241469,1.23098129 12.2977507,1.00393523 12.0144863,1.00005051 C12.0096396,0.999998012 12.0048467,0.999998012 12,1.00005051 L9.9483256,1.00005051 Z" id="Fill-1"></path>
        </g>
    </g>
</svg>