<?xml version="1.0" encoding="UTF-8" standalone="no"?>
<svg width="80px" height="80px" viewBox="0 0 80 80" version="1.1" xmlns="http://www.w3.org/2000/svg" xmlns:xlink="http://www.w3.org/1999/xlink">
    <!-- Generator: Sketch 43.2 (39069) - http://www.bohemiancoding.com/sketch -->
    <title>icon/icon_cloud</title>
    <desc>Created with Sketch.</desc>
    <defs></defs>
    <g id="Symbols" stroke="none" stroke-width="1" fill="none" fill-rule="evenodd">
        <g id="icon/icon_cloud" fill-rule="nonzero" fill="#FFFFFF">
            <path d="M61.7853855,63 L19.5711672,62.791422 C16.4412882,62.791422 13.4518969,61.7982527 10.9335166,59.9191943 C10.2539149,59.4120879 10.1091452,58.4432629 10.6105376,57.7556365 C11.1117261,57.0678038 12.0692448,56.9213247 12.7488465,57.4286374 C14.7374921,58.9124086 17.0992764,59.6967937 19.5787116,59.6967937 L61.792726,59.9053716 C67.3855242,59.9053716 71.9414863,55.2956133 71.9414863,49.6293487 C71.9414863,43.9630842 67.3853203,39.3533258 61.7851816,39.3533258 C60.9404202,39.3533258 60.2559248,38.6605417 60.2559248,37.8060117 C60.2559248,36.9514816 60.9404202,36.2586975 61.7851816,36.2586975 C69.0717848,36.2586975 75,42.2567061 75,49.6293487 C75,57.0019913 69.0719887,63 61.7853855,63 Z M6.52925687,49.588087 C5.68469928,49.588087 5,48.8953029 5,48.0407728 C5,39.9072643 11.539918,33.2899173 19.5787116,33.2899173 C21.5504334,33.2899173 23.4785205,33.6889181 25.2669354,34.4578301 C25.9471489,24.71594 33.9979726,17 43.7964312,17 C48.0746802,17 52.2509787,18.5074966 55.5558048,21.2447986 C58.8141414,23.9435208 61.0898795,27.7119529 61.9637988,31.8562792 C62.1399692,32.6920351 61.6132932,33.5141747 60.7870867,33.6924253 C59.9610841,33.8704696 59.1489467,33.3377809 58.9725724,32.502025 C57.4565691,25.3127907 51.0742665,20.0948347 43.7964312,20.0948347 C35.240137,20.0948347 28.2787559,27.1382088 28.2787559,35.7957411 C28.2787559,36.1276915 28.3036318,36.470989 28.3297311,36.8342983 L28.3374793,36.9421977 C28.3796868,37.5316213 28.0864773,38.0938121 27.5816186,38.3911027 C27.0765561,38.6883933 26.4487451,38.668794 25.9630532,38.3407634 C24.0682019,37.0608251 21.8603628,36.3845457 19.5783038,36.3845457 C13.2263824,36.384752 8.05851374,41.6136424 8.05851374,48.0407728 C8.05851374,48.8953029 7.37381446,49.588087 6.52925687,49.588087 Z" id="Combined-Shape"></path>
        </g>
    </g>
</svg>