<?xml version="1.0" encoding="UTF-8" standalone="no"?>
<svg width="30px" height="30px" viewBox="0 0 30 30" version="1.1" xmlns="http://www.w3.org/2000/svg" xmlns:xlink="http://www.w3.org/1999/xlink">
    <!-- Generator: Sketch 43.2 (39069) - http://www.bohemiancoding.com/sketch -->
    <title>icon/icon_wind</title>
    <desc>Created with Sketch.</desc>
    <defs></defs>
    <g id="Symbols" stroke="none" stroke-width="1" fill="none" fill-rule="evenodd">
        <g id="icon/icon_wind" fill-rule="nonzero" fill="#6B7586">
            <path d="M7.37811983,6.58765634 C8.4105689,6.58765634 9.25047607,5.7829029 9.25047607,4.79382817 C9.25047607,3.80475344 8.4105689,3 7.37811983,3 C6.34567077,3 5.5057636,3.80475344 5.5057636,4.79382817 C5.5057636,5.7829029 6.34567077,6.58765634 7.37811983,6.58765634 Z M7.37811983,4.08936933 C7.78359487,4.08936933 8.11341762,4.40543169 8.11341762,4.79382817 C8.11341762,5.18222465 7.78351907,5.49828701 7.37811983,5.49828701 C6.97272059,5.49828701 6.64282204,5.18222465 6.64282204,4.79382817 C6.64282204,4.40543169 6.97264479,4.08936933 7.37811983,4.08936933 Z M25.9979825,14.7952554 C26.0034403,14.917991 26.1057756,17.8243558 23.7779138,19.7932093 C23.6729254,19.8819566 23.5387525,19.9295257 23.4016232,19.9295257 C23.3595521,19.9295257 23.3173293,19.925023 23.2754097,19.9159449 L10.1345011,17.0503225 C10.127982,17.0489427 10.1219177,17.0468366 10.1155501,17.0452388 C10.1057714,17.042697 10.0959927,17.040373 10.0862898,17.0373227 C10.0752983,17.0339094 10.0646099,17.029915 10.0539216,17.0259207 C10.0486911,17.0239598 10.0433848,17.0225073 10.0381544,17.0204012 C10.0367141,17.0198202 10.0354254,17.0190213 10.0339851,17.0184403 C10.0137455,17.0100159 9.99403649,17.0008652 9.97523712,16.9904072 C8.74880588,16.4055612 9.08196401,13.9983454 9.96075857,11.799635 L7.94664905,10.9784684 L7.94664905,24.9106307 L9.18778625,24.9106307 C9.50184179,24.9106307 9.75631547,25.1545041 9.75631547,25.4553153 C9.75631547,25.7561265 9.50184179,26 9.18778625,26 L5.56852922,26 C5.25447368,26 5,25.7561265 5,25.4553153 C5,25.1545041 5.25447368,24.9106307 5.56852922,24.9106307 L6.80959061,24.9106307 L6.80959061,8.00754033 C6.80959061,7.70672914 7.06406429,7.46285566 7.37811983,7.46285566 C7.69217537,7.46285566 7.94664905,7.70672914 7.94664905,8.00754033 L7.94664905,9.79461441 L10.4058032,10.7971973 C10.9058057,9.77565938 11.4951052,8.87438782 12.0933496,8.22294496 C13.1440674,7.07896191 13.9083223,7.04562721 14.3688309,7.2252279 C14.3719389,7.22638989 14.3750469,7.22755189 14.3781548,7.22878651 C14.3807322,7.22980325 14.3835369,7.23074737 14.3861142,7.23183674 C14.4841287,7.27178028 14.584872,7.32835486 14.6814462,7.4072252 L25.7419169,14.3632115 C25.8948892,14.4593665 25.9900989,14.6201574 25.9979825,14.7952554 Z M23.2338692,18.7896823 C24.5995522,17.4926791 24.8230221,15.7657382 24.8569822,15.1097926 L22.4308027,13.5839493 C22.2722968,14.2589226 22.0095605,15.0392015 21.6334215,15.9517299 C21.5121353,16.2460775 21.385846,16.5282241 21.2579648,16.7904716 C21.1613907,16.988519 20.9564169,17.1048636 20.7424225,17.1048636 C20.661843,17.1048636 20.5799748,17.0883052 20.5022,17.053518 C20.217708,16.9262071 20.0948298,16.6020834 20.2276383,16.3295232 C20.3458165,16.0871748 20.4630094,15.8254357 20.5758814,15.5515682 C21.0123602,14.492556 21.2836624,13.6371106 21.4050244,12.9387522 L15.2511883,9.06858606 C15.2502028,9.20359523 15.2436837,9.34753724 15.2302664,9.50186456 C15.1430919,10.504738 14.7953037,11.7318762 14.2509559,12.9573441 C13.9139318,13.7159083 13.5139146,14.4417914 13.093961,15.0565588 C12.9220378,15.3082757 12.5695497,15.378649 12.306965,15.2140816 C12.0442287,15.049369 11.9705473,14.7117371 12.1425463,14.4600201 C12.5263414,13.8981961 12.8935355,13.2311389 13.2046347,12.5308197 C14.3106894,10.0406666 14.1798518,8.52099641 13.9718459,8.26412312 L13.9200719,8.23158729 C13.6260286,8.21546462 12.3559343,9.1627802 11.2194823,11.7214909 C10.0844705,14.2765703 10.2518455,15.8101845 10.4686447,16.0059805 L15.1402872,17.0247587 C15.7969005,16.3715002 16.4779985,15.3097282 17.0211335,14.0869475 C17.2647672,13.5384137 17.4657233,12.9911145 17.618544,12.4603012 C17.7021557,12.1703111 18.0149225,11.9999337 18.3178349,12.0800386 C18.6205199,12.1599984 18.7982042,12.459938 18.7147441,12.7499282 C18.548582,13.3271487 18.3307974,13.9204918 18.0674546,14.5134719 C17.5880708,15.5926011 16.9992261,16.5683129 16.3957513,17.2984809 L23.2338692,18.7896823 Z" id="Combined-Shape"></path>
        </g>
    </g>
</svg>