<?xml version="1.0" encoding="UTF-8" standalone="no"?>
<svg width="80px" height="80px" viewBox="0 0 80 80" version="1.1" xmlns="http://www.w3.org/2000/svg" xmlns:xlink="http://www.w3.org/1999/xlink">
    <!-- Generator: Sketch 43.2 (39069) - http://www.bohemiancoding.com/sketch -->
    <title>icon/icon_rain</title>
    <desc>Created with Sketch.</desc>
    <defs></defs>
    <g id="Symbols" stroke="none" stroke-width="1" fill="none" fill-rule="evenodd">
        <g id="icon/icon_rain" fill-rule="nonzero" fill="#FFFFFF">
            <path d="M51.8799855,55.8979932 L51.8799855,55.8979932 L41.3498634,55.8979932 L35.4595901,64.0732184 C35.1655378,64.481587 34.7058052,64.6984573 34.2394535,64.6984573 C33.933968,64.6984573 33.6256744,64.6052253 33.3591017,64.4117133 C32.6859506,63.923 32.5349128,62.9787986 33.0219244,62.3030171 L37.6367006,55.8979932 L28.8967674,55.8979932 C28.0659593,55.8979932 27.392407,55.2218089 27.392407,54.3877543 C27.392407,53.5536997 28.0659593,52.8775154 28.8967674,52.8775154 L39.8130087,52.8775154 L43.0570116,48.3751911 C43.5438227,47.6992082 44.4845494,47.5477816 45.1575,48.0366962 C45.8306512,48.5254096 45.981689,49.4696109 45.4946773,50.1453925 L43.5261715,52.8775154 L51.8799855,52.8775154 C52.7107936,52.8775154 53.3843459,53.5536997 53.3843459,54.3877543 C53.3843459,55.2218089 52.7107936,55.8979932 51.8799855,55.8979932 Z M61.8609157,29.7972389 C69.0286919,29.7972389 74.8603953,35.6517304 74.8603953,42.8475154 C74.8603953,49.4005427 69.9844622,54.9656724 63.5185203,55.7926792 C63.4541337,55.8009352 63.3897471,55.8049625 63.326564,55.8049625 C62.5802006,55.8049625 61.9327238,55.2481877 61.8360436,54.4854164 C61.730939,53.6580068 62.3140291,52.9016792 63.138218,52.7963652 C68.1056163,52.1608567 71.8516744,47.8838601 71.8516744,42.8475154 C71.8516744,37.3170205 67.3698837,32.8177167 61.8609157,32.8177167 C61.0301076,32.8177167 60.3565552,32.1415324 60.3565552,31.3074778 C60.3565552,30.4734232 61.0301076,29.7972389 61.8609157,29.7972389 Z M18.0096105,55.4821741 C17.9193488,55.4821741 17.8280843,55.4741195 17.736218,55.4570034 C10.9357064,54.2033038 6,48.2483311 6,41.2970034 C6,33.3583823 12.4334477,26.8997952 20.3415698,26.8995939 C22.2811919,26.8995939 24.1778895,27.2890341 25.937189,28.0395222 C26.6063285,18.5308567 34.5262849,11 44.1652238,11 C48.5184419,11 52.7354651,12.5627952 56.0390407,15.4002321 C59.3057093,18.206256 61.4906424,22.0841468 62.1912733,26.3198635 C62.327468,27.1426416 61.7732616,27.920314 60.953686,28.057041 C60.134311,28.1931638 59.3594651,27.6373959 59.2232703,26.8146177 C58.638375,23.2786451 56.8130843,20.0400887 54.0831715,17.6953925 C51.3241744,15.3255256 47.8017645,14.0204778 44.1652238,14.0204778 C35.7480262,14.0204778 28.9001773,20.8952867 28.9001773,29.3451741 C28.9001773,29.669372 28.9244477,30.0044437 28.9503227,30.3590478 L28.9579448,30.4643618 C28.9994651,31.0394608 28.7108285,31.5883823 28.2143895,31.8785495 C27.7175494,32.1687167 27.0999593,32.149587 26.6221744,31.8294164 C24.7581715,30.5803481 22.5862762,29.9200717 20.3413692,29.9200717 C14.0924564,29.9200717 9.00872093,35.0238737 9.00872093,41.2970034 C9.00872093,46.7902457 12.9076221,51.4959488 18.279593,52.4862628 C19.0967616,52.636884 19.6375291,53.4240205 19.4874942,54.2443823 C19.3543081,54.9725188 18.7214738,55.4821741 18.0096105,55.4821741 Z M27.9349797,48.0366962 C28.6081308,48.5254096 28.7591686,49.4696109 28.272157,50.1453925 L18.2370698,64.0732184 C17.9430174,64.481587 17.4832849,64.6984573 17.0169331,64.6984573 C16.7114477,64.6984573 16.4031541,64.6052253 16.1365814,64.4117133 C15.4634302,63.923 15.3123924,62.9787986 15.7994041,62.3030171 L25.8344913,48.3751911 C26.3213023,47.6992082 27.2618285,47.5477816 27.9349797,48.0366962 Z M13.6806628,66.902802 C14.0776134,66.902802 14.464936,67.0638942 14.74575,67.3458055 C15.0245581,67.6257031 15.1850233,68.0143379 15.1850233,68.413041 C15.1850233,68.8097304 15.0245581,69.1983652 14.74575,69.4802765 C14.464936,69.7621877 14.077814,69.9232799 13.6806628,69.9232799 C13.2855174,69.9232799 12.8963895,69.7621877 12.6175814,69.4802765 C12.3367674,69.1983652 12.1763023,68.8097304 12.1763023,68.413041 C12.1763023,68.0143379 12.3367674,67.6257031 12.6175814,67.3458055 C12.8963895,67.0638942 13.2855174,66.902802 13.6806628,66.902802 Z M30.9045872,66.902802 C31.2997326,66.902802 31.6868547,67.0638942 31.9676686,67.3458055 C32.2464767,67.6257031 32.4089477,68.0143379 32.4089477,68.413041 C32.4089477,68.8097304 32.2464767,69.2003788 31.9676686,69.4802765 C31.6868547,69.7621877 31.2997326,69.9232799 30.9045872,69.9232799 C30.507436,69.9232799 30.120314,69.7621877 29.8395,69.4802765 C29.5606919,69.2003788 29.4002267,68.8097304 29.4002267,68.413041 C29.4002267,68.0143379 29.5606919,67.6257031 29.8395,67.3458055 C30.120314,67.0638942 30.507436,66.902802 30.9045872,66.902802 Z M62.3800203,48.0366962 C63.0533721,48.5254096 63.2042093,49.4696109 62.7171977,50.1453925 L52.6821105,64.0732184 C52.3880581,64.481587 51.9283256,64.6984573 51.4619738,64.6984573 C51.1564884,64.6984573 50.8481948,64.6052253 50.5816221,64.4117133 C49.9084709,63.923 49.7574331,62.9787986 50.2444448,62.3030171 L60.279532,48.3751911 C60.766343,47.6992082 61.7068692,47.5477816 62.3800203,48.0366962 Z M48.1263052,66.902802 C48.5216512,66.902802 48.9107791,67.0638942 49.1893866,67.3437918 C49.4702006,67.6257031 49.6306657,68.0143379 49.6306657,68.413041 C49.6306657,68.8097304 49.4702006,69.1983652 49.1893866,69.4802765 C48.9105785,69.7621877 48.5214506,69.9232799 48.1263052,69.9232799 C47.7311599,69.9232799 47.342032,69.7621877 47.0632238,69.4802765 C46.7824099,69.2003788 46.6219448,68.8097304 46.6219448,68.413041 C46.6219448,68.0143379 46.7824099,67.6257031 47.0632238,67.3437918 C47.342032,67.0638942 47.7311599,66.902802 48.1263052,66.902802 Z" id="Combined-Shape"></path>
        </g>
    </g>
</svg>