<?xml version="1.0" encoding="UTF-8" standalone="no"?>
<svg width="40px" height="40px" viewBox="0 0 40 40" version="1.1" xmlns="http://www.w3.org/2000/svg" xmlns:xlink="http://www.w3.org/1999/xlink">
    <!-- Generator: Sketch 43.2 (39069) - http://www.bohemiancoding.com/sketch -->
    <title>icon/icon_hat</title>
    <desc>Created with Sketch.</desc>
    <defs></defs>
    <g id="Symbols" stroke="none" stroke-width="1" fill="none" fill-rule="evenodd">
        <g id="icon/icon_hat" fill-rule="nonzero" fill="#8B572A">
            <path d="M39.57625,25.4001626 L29.8335937,20.027561 L29.8335937,17.2713008 C29.8335937,11.6286992 25.4222656,7.03796748 20,7.03796748 C14.5777344,7.03796748 10.1664062,11.6286179 10.1664062,17.2713008 L10.1664062,20.027561 L0.42375,25.4001626 C0.1003125,25.5785366 -0.0646875,25.963252 0.02359375,26.3329268 C0.111875,26.7026016 0.430859375,26.9620325 0.796875,26.9620325 L39.203125,26.9620325 C39.5691406,26.9620325 39.888125,26.7026016 39.9764062,26.3329268 C40.0646875,25.9633333 39.8996094,25.5785366 39.57625,25.4001626 Z M20,8.69642276 C24.2747656,8.69642276 27.7998437,12.1013821 28.2017969,16.4421138 L11.7982031,16.4421138 C12.2002344,12.1013821 15.7252344,8.69642276 20,8.69642276 Z M11.7600781,18.1005691 L28.24,18.1005691 L28.24,19.6974797 L11.7600781,19.6974797 L11.7600781,18.1005691 Z M4.00234375,25.3036585 L11.1613281,21.3557724 L28.8389062,21.3557724 L35.9978906,25.3036585 L4.00234375,25.3036585 Z M24.4621875,23.053252 L23.7450781,23.053252 C23.3050781,23.053252 22.9482813,23.4244715 22.9482813,23.882439 C22.9482813,24.3404065 23.3050781,24.711626 23.7450781,24.711626 L24.4621875,24.711626 C24.9021875,24.711626 25.2589844,24.3404065 25.2589844,23.882439 C25.2589844,23.4244715 24.9022656,23.053252 24.4621875,23.053252 Z M20.9561719,23.053252 L9.72117187,23.053252 C9.28117187,23.053252 8.924375,23.4244715 8.924375,23.882439 C8.924375,24.3404065 9.28117187,24.711626 9.72117187,24.711626 L20.9561719,24.711626 C21.3961719,24.711626 21.7529687,24.3404065 21.7529687,23.882439 C21.7529687,23.4244715 21.39625,23.053252 20.9561719,23.053252 Z" id="Combined-Shape"></path>
        </g>
    </g>
</svg>