<?xml version="1.0" encoding="UTF-8" standalone="no"?>
<svg width="30px" height="30px" viewBox="0 0 30 30" version="1.1" xmlns="http://www.w3.org/2000/svg" xmlns:xlink="http://www.w3.org/1999/xlink">
    <!-- Generator: Sketch 43.2 (39069) - http://www.bohemiancoding.com/sketch -->
    <title>icon/icon_uv</title>
    <desc>Created with Sketch.</desc>
    <defs></defs>
    <g id="Symbols" stroke="none" stroke-width="1" fill="none" fill-rule="evenodd">
        <g id="icon/icon_uv" fill-rule="nonzero" fill="#6B7586">
            <path d="M11.6121009,6.83333333 C11.6121009,7.09792917 11.3975781,7.3125 11.1329346,7.3125 L8.73710301,7.3125 C8.47245946,7.3125 8.2579367,7.09792917 8.2579367,6.83333333 C8.2579367,6.5687375 8.47245946,6.35416667 8.73710301,6.35416667 L11.1329346,6.35416667 C11.3975781,6.35416667 11.6121009,6.5687375 11.6121009,6.83333333 Z M23.6458358,16.65625 C23.6458358,16.9208458 23.4312651,17.1354167 23.1666695,17.1354167 L22.1601806,17.1354167 C22.0979369,17.4408854 21.9774266,17.7254146 21.8106767,17.9768333 L22.5230533,18.6891625 C22.7101677,18.8762771 22.7101677,19.1796854 22.5230533,19.3668479 C22.3358909,19.5539146 22.0325787,19.5539146 21.8453684,19.3668479 L21.1330397,18.6544708 C20.8816691,18.8211729 20.5970922,18.9417312 20.2916237,19.003975 L20.2916237,20.0104167 C20.2916237,20.2750125 20.077053,20.4895833 19.8124574,20.4895833 C19.5478617,20.4895833 19.3332911,20.2750125 19.3332911,20.0104167 L19.3332911,19.0039271 C19.0278225,18.9416833 18.7432457,18.8211729 18.491875,18.6544229 L17.7795464,19.3668 C17.592384,19.5538667 17.2890717,19.5538667 17.1018614,19.3668 C16.914747,19.1796854 16.914747,18.8762771 17.1018614,18.6891146 L17.814238,17.9767854 C17.647536,17.7254146 17.5269778,17.4408375 17.4647341,17.1353688 L16.4582453,17.1353688 C16.1936496,17.1353688 15.9790789,16.9207979 15.9790789,16.6562021 C15.9790789,16.3916063 16.1936496,16.1770354 16.4582453,16.1770354 L17.4647341,16.1770354 C17.5269778,15.8715667 17.6474881,15.5870375 17.814238,15.3356188 L17.1018614,14.6232896 C16.914747,14.436175 16.914747,14.1327667 17.1018614,13.9456042 C17.2890238,13.7585375 17.5923361,13.7585375 17.7795464,13.9456042 L18.491875,14.6579813 C18.7432457,14.4912792 19.0278225,14.3707208 19.3332911,14.3084771 L19.3332911,13.3020833 C19.3332911,13.0374875 19.5478617,12.8229167 19.8124574,12.8229167 C20.077053,12.8229167 20.2916237,13.0374875 20.2916237,13.3020833 L20.2916237,14.3085729 C20.5970922,14.3708167 20.8816691,14.4913271 21.1330397,14.6580771 L21.8453684,13.9457 C22.0325307,13.7586333 22.335843,13.7586333 22.5230533,13.9457 C22.7101677,14.1328146 22.7101677,14.4362229 22.5230533,14.6233854 L21.8106767,15.3357146 C21.9774266,15.5870854 22.0979369,15.8716625 22.1601806,16.1771313 L23.1666695,16.1771313 C23.4312651,16.1770833 23.6458358,16.3916542 23.6458358,16.65625 Z M21.2500042,16.65625 C21.2500042,15.8636125 20.6051422,15.21875 19.8125053,15.21875 C19.0198684,15.21875 18.3750063,15.8636125 18.3750063,16.65625 C18.3750063,17.4488875 19.0198684,18.09375 19.8125053,18.09375 C20.6051422,18.09375 21.2500042,17.4488875 21.2500042,16.65625 Z M27,9.70833333 L27,24.0833333 C27,25.1401833 26.140184,26 25.0833347,26 L14.5416279,26 C14.2994573,26 14.0676366,25.9548625 13.854168,25.8725417 C13.7686847,25.9516521 13.6544036,26 13.5287182,26 L7.29955615,26 C6.50691924,26 5.86205721,25.3551375 5.86205721,24.5625 L5.86205721,21.2341604 L4.00552733,4.06135417 C3.9763461,3.79115208 4.0636502,3.52027917 4.2451584,3.31807083 C4.42671452,3.11595833 4.68661433,3 4.95830163,3 L14.9116401,3 C15.1833274,3 15.4432272,3.11595833 15.6247354,3.31811875 C15.8062436,3.52032708 15.8935957,3.7912 15.8644144,4.06135417 L15.4611481,7.79166667 L17.4166258,7.79166667 L17.4166258,4.91666667 C17.4166258,3.85981667 18.2764418,3 19.3332911,3 L20.2916237,3 C21.3484729,3 22.2082889,3.85981667 22.2082889,4.91666667 L22.2082889,7.79166667 L25.0832868,7.79166667 C26.140184,7.79166667 27,8.65148333 27,9.70833333 Z M18.3749584,7.79166667 L21.2499563,7.79166667 L21.2499563,4.91666667 C21.2499563,4.38824167 20.8200483,3.95833333 20.2916237,3.95833333 L19.3332911,3.95833333 C18.8048664,3.95833333 18.3749584,4.38824167 18.3749584,4.91666667 L18.3749584,7.79166667 Z M12.8821791,25.0416667 C12.7186397,24.7595812 12.6249627,24.4321667 12.6249627,24.0833333 L12.6249627,21.6875 L6.82038984,21.6875 L6.82038984,24.5625 C6.82038984,24.8267125 7.03534385,25.0416667 7.29955615,25.0416667 L12.8821791,25.0416667 Z M14.4971613,7.79219375 L14.9116881,3.95833333 L4.95830163,3.95833333 L6.77137113,20.7291667 L12.6249627,20.7291667 L12.6249627,9.70833333 C12.6249627,8.6663375 13.4607245,7.81586458 14.4971613,7.79219375 Z M26.0416674,9.70833333 C26.0416674,9.17990833 25.6117594,8.75 25.0833347,8.75 L14.9342568,8.75 C14.930088,8.75009583 14.9259193,8.75009583 14.9217026,8.75 L14.5416279,8.75 C14.0132033,8.75 13.5832953,9.17990833 13.5832953,9.70833333 L13.5832953,24.0833333 C13.5832953,24.6117583 14.0132033,25.0416667 14.5416279,25.0416667 L25.0833347,25.0416667 C25.6117594,25.0416667 26.0416674,24.6117583 26.0416674,24.0833333 L26.0416674,9.70833333 Z M10.5991912,9.22916667 L9.27075054,9.22916667 C9.00610698,9.22916667 8.79158422,9.4437375 8.79158422,9.70833333 C8.79158422,9.97292917 9.00610698,10.1875 9.27075054,10.1875 L10.5991912,10.1875 C10.8638348,10.1875 11.0783575,9.97292917 11.0783575,9.70833333 C11.0783575,9.4437375 10.8638348,9.22916667 10.5991912,9.22916667 Z" id="XMLID_3249_"></path>
        </g>
    </g>
</svg>