<?xml version="1.0" encoding="UTF-8" standalone="no"?>
<svg width="80px" height="80px" viewBox="0 0 80 80" version="1.1" xmlns="http://www.w3.org/2000/svg" xmlns:xlink="http://www.w3.org/1999/xlink">
    <!-- Generator: Sketch 43.2 (39069) - http://www.bohemiancoding.com/sketch -->
    <title>icon/icon_sun_cloud</title>
    <desc>Created with Sketch.</desc>
    <defs></defs>
    <g id="Symbols" stroke="none" stroke-width="1" fill="none" fill-rule="evenodd">
        <g id="icon/icon_sun_cloud" fill="#FFFFFF">
            <path d="M64.1483848,68.8986 L64.1410056,68.8986 L26.7876264,68.7156 C19.6020674,68.7156 13.7503511,62.8474 13.7503511,55.6342 C13.7503511,48.4212 19.6020674,42.553 26.7950056,42.553 C28.4924242,42.553 30.1535449,42.8806 31.702382,43.5126 C32.4046039,34.987 39.5482809,28.2644 48.2282303,28.2644 C57.3718736,28.2644 64.8107191,35.7242 64.8107191,44.8936 C64.8107191,44.9866 64.8097219,45.0804 64.8077275,45.1752 C71.0296011,45.5192 75.9860393,50.704 75.9860393,57.0278 C75.9858399,63.5732 70.6755983,68.8986 64.1483848,68.8986 Z M26.7948062,45.553 C21.2516208,45.553 16.7417247,50.0754 16.7417247,55.6342 C16.7417247,61.193 21.2514213,65.7156 26.7948062,65.7156 L64.1507781,65.8986 C69.0272416,65.8972 72.9940674,61.9182 72.9940674,57.0278 C72.9940674,52.1364 69.0258455,48.157 64.1481854,48.157 C63.9038736,48.157 63.6448034,48.1704 63.3326826,48.199 C62.8819522,48.2406 62.4388006,48.0756 62.1240871,47.751 C61.8091742,47.4264 61.6576011,46.9766 61.71125,46.527 C61.7836461,45.9198 61.8189466,45.3854 61.8189466,44.8934 C61.8189466,37.3782 55.7221208,31.2642 48.2280309,31.2642 C40.733941,31.2642 34.6371152,37.3782 34.6371152,44.8934 C34.6371152,45.1786 34.6588539,45.4764 34.6817893,45.7916 L34.6889691,45.8892 C34.7302528,46.4606 34.4432612,47.0056 33.9496517,47.2936 C33.4558427,47.582 32.8417725,47.5628 32.3665112,47.2448 C30.7129691,46.138 28.7863961,45.553 26.7948062,45.553 Z" id="Combined-Shape" fill-rule="nonzero"></path>
            <path d="M19.1947805,38.3308625 C15.9409058,36.4674447 13.9209542,32.9965441 13.9209542,29.2767204 C13.9209542,23.512922 18.6565988,18.8219473 24.4774584,18.8219473 C30.3000884,18.8219473 35.0375034,23.512922 35.0375034,29.2767204 C35.0375034,30.0024542 35.6323357,30.5914555 36.3652542,30.5914555 C37.0981726,30.5914555 37.693005,30.0024542 37.693005,29.2767204 C37.693005,26.1423921 36.5723833,23.2622458 34.7082211,21.0061605 L38.9587941,16.7990083 C39.4775021,16.2853852 39.4775021,15.4527196 38.9587941,14.9390965 C38.4418565,14.4272263 37.6009476,14.4237203 37.0822396,14.9390965 L32.8298963,19.1480016 C30.8736768,17.5633076 28.4553999,16.5220375 25.8052093,16.2590905 L25.8052093,10.314735 C25.8052093,9.5890013 25.2103769,9 24.4774584,9 C23.74454,9 23.1497076,9.5890013 23.1497076,10.314735 L23.1497076,16.2590905 C20.5012873,16.5220375 18.0830104,17.5633076 16.1285612,19.1480016 L11.8762179,14.9390965 C11.3575099,14.4254733 10.5183714,14.4254733 9.99966341,14.9390965 C9.48095542,15.4527196 9.48095542,16.2853852 9.99966341,16.7990083 L14.2502364,21.0061605 C12.6498541,22.9432034 11.5982754,25.3395272 11.3327252,27.9619854 L5.32775083,27.9619854 C4.59483237,27.9619854 4,28.5509867 4,29.2767204 C4,30.0024542 4.59483237,30.5914555 5.32775083,30.5914555 L11.3539693,30.5914555 C11.6177491,33.1578183 12.6427727,35.5646599 14.2608584,37.5350095 L9.99966341,41.7561855 C9.48095542,42.2698087 9.48095542,43.1024742 9.99966341,43.6160974 C10.2581322,43.8720325 10.5980364,44 10.9379407,44 C11.2778449,44 11.6177491,43.8720325 11.8762179,43.6160974 L16.1356426,39.3984273 C16.6773649,39.8401783 17.2456423,40.2538816 17.863489,40.6079836 C18.0723884,40.7271862 18.3025319,40.7832816 18.5273644,40.7832816 C18.985881,40.7832816 19.4320053,40.5501352 19.6780818,40.127667 C20.044541,39.5001002 19.8285602,38.6954823 19.1947805,38.3308625" id="Path"></path>
        </g>
    </g>
</svg>