<?xml version="1.0" encoding="UTF-8" standalone="no"?>
<svg width="30px" height="30px" viewBox="0 0 30 30" version="1.1" xmlns="http://www.w3.org/2000/svg" xmlns:xlink="http://www.w3.org/1999/xlink">
    <!-- Generator: Sketch 43.2 (39069) - http://www.bohemiancoding.com/sketch -->
    <title>icon/icon_temp</title>
    <desc>Created with Sketch.</desc>
    <defs></defs>
    <g id="Symbols" stroke="none" stroke-width="1" fill="none" fill-rule="evenodd">
        <g id="icon/icon_temp" fill-rule="nonzero" fill="#6B7586">
            <path d="M15,23.7832782 C15.861613,23.7832782 16.5627383,23.1170662 16.5627383,22.2982108 C16.5627383,21.4793555 15.8616825,20.8131434 15,20.8131434 C14.1383175,20.8131434 13.4372617,21.4793555 13.4372617,22.2982108 C13.4372617,22.5719115 13.2038314,22.793806 12.9157463,22.793806 C12.6276612,22.793806 12.3942309,22.5719115 12.3942309,22.2982108 C12.3942309,21.1024389 13.2907506,20.1020635 14.4784846,19.8718431 L14.4784846,6.33251395 C14.4784846,6.05881327 14.7119149,5.8369188 15,5.8369188 C15.2880851,5.8369188 15.5215154,6.05881327 15.5215154,6.33251395 L15.5215154,7.39150167 L16.1589463,7.39150167 C16.4470314,7.39150167 16.6804617,7.61339614 16.6804617,7.88709682 C16.6804617,8.1607975 16.4470314,8.38269197 16.1589463,8.38269197 L15.5215154,8.38269197 L15.5215154,9.8445655 L16.1589463,9.8445655 C16.4470314,9.8445655 16.6804617,10.06646 16.6804617,10.3401607 C16.6804617,10.6138613 16.4470314,10.8357558 16.1589463,10.8357558 L15.5215154,10.8357558 L15.5215154,12.2977615 L16.1589463,12.2977615 C16.4470314,12.2977615 16.6804617,12.519656 16.6804617,12.7933566 C16.6804617,13.0670573 16.4470314,13.2889518 16.1589463,13.2889518 L15.5215154,13.2889518 L15.5215154,14.7509575 L16.1589463,14.7509575 C16.4470314,14.7509575 16.6804617,14.972852 16.6804617,15.2465526 C16.6804617,15.5202533 16.4470314,15.7421478 16.1589463,15.7421478 L15.5215154,15.7421478 L15.5215154,17.2041535 L16.1589463,17.2041535 C16.4470314,17.2041535 16.6804617,17.426048 16.6804617,17.6997486 C16.6804617,17.9734493 16.4470314,18.1953438 16.1589463,18.1953438 L15.5215154,18.1953438 L15.5215154,19.8718431 C16.7093189,20.1020635 17.6057691,21.1025049 17.6057691,22.2982108 C17.6057691,23.6636085 16.4368097,24.7744685 15,24.7744685 C14.7119149,24.7744685 14.4784846,24.5525741 14.4784846,24.2788734 C14.4784846,24.0051727 14.7119149,23.7832782 15,23.7832782 Z M17.967979,17.3465545 C19.8382027,18.3610047 21,20.2583412 21,22.2982108 C21,25.4422004 18.3084242,28 15,28 C11.6915758,28 9,25.4422004 9,22.2982108 C9,20.3556761 10.0533916,18.5424586 11.7689687,17.4978101 L11.7689687,7.88709682 C11.7689687,7.61339614 12.002399,7.39150167 12.2904841,7.39150167 C12.5785692,7.39150167 12.8119995,7.61339614 12.8119995,7.88709682 L12.8119995,17.7769293 C12.8119995,17.954881 12.7116599,18.1191543 12.5490167,18.2073702 C11.0033145,19.0457851 10.0430308,20.6132534 10.0430308,22.2981448 C10.0430308,24.895592 12.266703,27.0087436 15,27.0087436 C17.733297,27.0087436 19.9569692,24.895592 19.9569692,22.2981448 C19.9569692,20.6133195 18.9966855,19.0457851 17.4509833,18.2073702 C17.200795,18.0717093 17.1138063,17.7689998 17.2565624,17.5313124 C17.3993186,17.2936249 17.7179297,17.2109597 17.967979,17.3465545 Z M12.2904841,6.54026744 C12.002399,6.54026744 11.7689687,6.31837297 11.7689687,6.04467229 C11.7689687,4.36579415 13.2062651,3 14.9728812,3 L15.0270493,3 C16.7936653,3 18.2309618,4.36579415 18.2309618,6.04467229 L18.2309618,15.2466187 C18.2309618,15.5203194 17.9975315,15.7422139 17.7094464,15.7422139 C17.4213613,15.7422139 17.187931,15.5203194 17.187931,15.2466187 L17.187931,6.04467229 C17.187931,4.91233649 16.2186077,3.9911903 15.0270493,3.9911903 L14.9728812,3.9911903 C13.7813228,3.9911903 12.8119995,4.91240257 12.8119995,6.04467229 C12.8119995,6.31837297 12.5785692,6.54026744 12.2904841,6.54026744 Z" id="Combined-Shape"></path>
        </g>
    </g>
</svg>