<?xml version="1.0" encoding="UTF-8" standalone="no"?>
<svg width="100px" height="99px" viewBox="0 0 100 99" version="1.1" xmlns="http://www.w3.org/2000/svg" xmlns:xlink="http://www.w3.org/1999/xlink">
    <!-- Generator: Sketch 43.2 (39069) - http://www.bohemiancoding.com/sketch -->
    <title>307871</title>
    <desc>Created with Sketch.</desc>
    <defs></defs>
    <g id="Welcome" stroke="none" stroke-width="1" fill="none" fill-rule="evenodd">
        <g id="Artboard-Copy-3" transform="translate(-200.000000, -419.000000)" fill-rule="nonzero">
            <g id="307871" transform="translate(200.000000, 419.000000)">
                <g id="Group" transform="translate(13.786093, 29.566116)" fill="#AAAAAA">
                    <path d="M5.45812774,0.0855861249 L5.45812774,0.0855861249 C2.49237025,0.0855861249 0.0879591557,2.494252 0.0879591557,5.46525761 L0.0879591557,15.7828595 C0.0879591557,18.7538651 2.49237025,21.162531 5.45812774,21.162531 L6.98547149,21.162531 L5.45812774,0.0855861249 Z" id="Shape"></path>
                    <path d="M64.9773506,0.0855861249 L64.9773506,0.0855861249 C67.9431081,0.0855861249 70.3475192,2.494252 70.3475192,5.46525761 L70.3475192,15.7828595 C70.3475192,18.7538651 67.9431081,21.162531 64.9773506,21.162531 L63.4500069,21.162531 L64.9773506,0.0855861249 Z" id="Shape"></path>
                </g>
                <g id="Group" transform="translate(74.561404, 56.409037)" fill="#5D9EBA">
                    <polygon id="Shape" points="12.4686472 13.4335204 0.0829107273 9.80700283 9.71667124 0.0669127885"></polygon>
                    <polygon id="Shape" points="21.9711486 3.65569461 24.8538012 17.0592598 12.4682589 13.4325478"></polygon>
                </g>
                <path d="M84.2788514,56.4767277 C82.8744175,61.2901692 84.0658466,66.2459948 87.0296624,69.8417791 C91.4602408,68.4109347 95.1283123,64.8781729 96.5327463,60.0647315 C97.9371802,55.25129 96.7457511,50.2954643 93.7819353,46.69968 C89.3513569,48.1301354 85.6832854,51.6632862 84.2788514,56.4767277 Z" id="Shape" fill="#F76B4F"></path>
                <path d="M77.6456049,82.0136822 L77.6456049,98.3890311 L20.2882744,98.3890311 L20.2882744,82.0136822 C20.2882744,78.3626559 21.303591,74.9522434 23.0647158,72.0462054 C23.6458676,71.0893914 24.3070175,70.1860688 25.0396222,69.3496589 C26.4489104,67.7392782 28.120911,66.3654264 29.9911595,65.2971559 C32.7920664,63.698057 36.0314099,62.7857867 39.482399,62.7857867 L58.4516744,62.7857867 C61.927129,62.7857867 65.1843362,63.7091443 67.9941749,65.3261385 C69.8599575,66.3988827 71.5274922,67.7774029 72.9301786,69.3899233 C73.6604532,70.230807 74.3194673,71.1362693 74.898289,72.0954174 C76.641356,74.9901736 77.6456049,78.3848305 77.6456049,82.0136822 Z" id="Shape" fill="#EFEFEF"></path>
                <g id="Group" transform="translate(20.193713, 62.633482)">
                    <path d="M30.8668677,0.151526344 L19.2894623,0.151526344 C8.68892772,0.151526344 0.0957259686,8.76012891 0.0957259686,19.3792273 L0.0957259686,35.7553543 L11.6731314,35.7553543 L11.6731314,19.3792273 C11.6729372,8.76032342 20.2663332,0.151526344 30.8668677,0.151526344 Z" id="Shape" fill="#D6D6D6"></path>
                    <path d="M47.8002673,2.6926562 C42.554756,6.76538866 35.9690812,9.18981016 28.8177883,9.18981016 C21.6509617,9.18981016 15.0495591,6.75430136 9.79744609,2.66367362 C12.598353,1.06457468 15.8376965,0.152304399 19.2886856,0.152304399 L38.2577668,0.152304399 C41.7332214,0.152109886 44.9906227,1.07566198 47.8002673,2.6926562 Z" id="Shape" fill="#B3B3B3"></path>
                </g>
                <path d="M80.0257447,37.8903391 L80.0257447,38.0755163 C80.0257447,55.2359234 66.14179,69.1467809 49.0115017,69.1467809 C47.424936,69.1467809 45.866525,69.0275439 44.3440355,68.7972394 C39.7767612,68.1065205 36.7605195,65.5259043 33.0747784,63.0680264 C24.7248721,57.5002599 17.9976471,48.8776524 17.9976471,38.0753218 C17.9976471,38.0062694 17.9976471,37.9370224 17.999783,37.86797 C18.0063848,36.7372606 18.0731794,35.6219177 18.1980309,34.5223305 C19.894497,19.5811328 32.1732456,7.85602821 47.3420253,7.05307474 C47.8942457,7.021758 48.4507378,7.00619689 49.0118901,7.00619689 C49.5730423,7.00619689 50.1295344,7.021758 50.6817548,7.05307474 C65.8592722,7.85602821 78.1403509,19.5943597 79.8278851,34.5446996 C79.9521541,35.6440923 80.0189487,36.7592406 80.0257447,37.8903391 Z" id="Shape" fill="#EFEFEF"></path>
                <path d="M29.5694216,38.0762944 C29.5694216,20.9172489 38.3018435,7.00678043 49.0740246,7.00678043 C31.9452897,7.00678043 18.0593933,20.9168599 18.0593933,38.0762944 C18.0593933,55.2357289 31.9450955,69.1458083 49.0740246,69.1458083 C38.3022318,69.1456138 29.5694216,55.2353398 29.5694216,38.0762944 Z" id="Shape" fill="#D6D6D6"></path>
                <path d="M63.0395308,25.8872741 L34.9846377,25.8872741 C29.3837948,25.8872741 24.8435101,30.4355931 24.8435101,36.0463471 L24.8435101,42.0126726 C24.8435101,51.6302188 32.626245,59.4267258 42.2268024,59.4267258 L55.7973661,59.4267258 C65.3979235,59.4267258 73.1806584,51.6302188 73.1806584,42.0126726 L73.1806584,36.0463471 C73.1804642,30.4357876 68.6401796,25.8872741 63.0395308,25.8872741 Z" id="Shape" fill="#C0E7F9"></path>
                <path d="M36.1974255,42.0124781 L36.1974255,36.0461526 C36.1974255,30.4353986 40.7377102,25.8870796 46.3385531,25.8870796 L34.9844435,25.8870796 C29.3836006,25.8870796 24.8435101,30.4353986 24.8435101,36.0461526 L24.8435101,42.0124781 C24.8435101,51.6300243 32.626245,59.4265313 42.2268024,59.4265313 L53.5809119,59.4265313 C43.9803545,59.4265313 36.1974255,51.6300243 36.1974255,42.0124781 Z" id="Shape" fill="#A3CDD6"></path>
                <g id="Group" transform="translate(6.213450, 0.194514)" fill="#F9C573">
                    <path d="M8.13262975,62.5134672 L5.90607867,62.5134672 L5.90607867,60.2831706 C5.90607867,59.6056786 5.35793586,59.0563713 4.68144645,59.0563713 C4.00515122,59.0563713 3.45681424,59.6054841 3.45681424,60.2831706 L3.45681424,62.5134672 L1.2306515,62.5134672 C0.554356268,62.5134672 0.00601927997,63.06258 0.00601927997,63.740072 C0.00601927997,64.417564 0.554162098,64.9668713 1.2306515,64.9668713 L3.45700841,64.9668713 L3.45700841,67.1971679 C3.45700841,67.8746599 4.00515122,68.4239672 4.68164062,68.4239672 C5.35793586,68.4239672 5.90627284,67.8748544 5.90627284,67.1971679 L5.90627284,64.9668713 L8.13262975,64.9668713 C8.80892498,64.9668713 9.35726197,64.4177585 9.35726197,63.740072 C9.3570678,63.06258 8.80892498,62.5134672 8.13262975,62.5134672 Z" id="Shape"></path>
                    <path d="M72.4764026,3.53606855 L70.2500457,3.53606855 L70.2500457,1.30577195 C70.2500457,0.628279962 69.7019029,0.0789726516 69.0254135,0.0789726516 C68.3489241,0.0789726516 67.8007812,0.628085448 67.8007812,1.30577195 L67.8007812,3.53606855 L65.5744243,3.53606855 C64.8981291,3.53606855 64.3499863,4.08518135 64.3499863,4.76286785 C64.3499863,5.44055435 64.8981291,5.98966714 65.5744243,5.98966714 L67.8007812,5.98966714 L67.8007812,8.21996375 C67.8007812,8.89745573 68.3489241,9.44676305 69.0254135,9.44676305 C69.7019029,9.44676305 70.2500457,8.89765025 70.2500457,8.21996375 L70.2500457,5.98947263 L72.4764026,5.98947263 C73.1526978,5.98947263 73.7008406,5.44035983 73.7008406,4.76267333 C73.7008406,4.08498684 73.1526978,3.53606855 72.4764026,3.53606855 Z" id="Shape"></path>
                    <path d="M87.1708242,11.2150891 L82.7179162,11.2150891 L82.7179162,6.75430136 C82.7179162,6.07680938 82.1697734,5.52750207 81.4934782,5.52750207 C80.8171829,5.52750207 80.2688459,6.07661486 80.2688459,6.75430136 L80.2688459,11.2150891 L75.815938,11.2150891 C75.1396427,11.2150891 74.5913057,11.7642019 74.5913057,12.4418884 C74.5913057,13.1195749 75.1394486,13.6686877 75.815938,13.6686877 L80.2688459,13.6686877 L80.2688459,18.1294754 C80.2688459,18.8069674 80.8169888,19.3562747 81.4934782,19.3562747 C82.1697734,19.3562747 82.7179162,18.8071619 82.7179162,18.1294754 L82.7179162,13.6684932 L87.1708242,13.6684932 C87.8471194,13.6684932 88.3952622,13.1193804 88.3952622,12.4416939 C88.3952622,11.7642019 87.8471194,11.2150891 87.1708242,11.2150891 Z" id="Shape"></path>
                </g>
                <path d="M74.898289,72.0952229 C67.8516539,77.4883158 59.5203879,80.4814961 50.6813665,80.8181996 L50.6813665,84.5161038 C50.6813665,85.4417955 49.9332283,86.1889235 49.0115017,86.1889235 L40.5398506,86.1889235 L40.5398506,98.3890311 L37.2001211,98.3890311 L37.2001211,84.5161038 C37.2001211,83.5927462 37.9459293,82.8432841 38.8699858,82.8432841 L47.341637,82.8432841 L47.341637,80.8181996 C38.4715483,80.4814961 30.1179528,77.4682809 23.0647158,72.0462054 C23.6458676,71.0893914 24.3070175,70.1860688 25.0396222,69.3496589 C31.9592699,74.6847867 40.2394691,77.503877 49.0115017,77.503877 C57.754603,77.503877 66.0169385,74.7003478 72.9299845,69.3897288 C73.660259,70.2306125 74.3192731,71.1362693 74.898289,72.0952229 Z" id="Shape" fill="#808080"></path>
                <g id="Group" transform="translate(20.193713, 85.002583)" fill="#F76B4F">
                    <rect id="Rectangle-path" x="50.1058457" y="0.182648571" width="7.34682246" height="7.3598232"></rect>
                    <rect id="Rectangle-path" x="0.0957259686" y="0.182648571" width="7.34682246" height="7.3598232"></rect>
                </g>
                <path d="M69.8597633,53.2534375 L59.7339752,53.2534375 C59.180784,53.2534375 58.7320564,52.8041104 58.7320564,52.2497457 C58.7320564,51.695381 59.1805898,51.2460539 59.7339752,51.2460539 L69.8597633,51.2460539 C70.4129546,51.2460539 70.8616822,51.695381 70.8616822,52.2497457 C70.8616822,52.8041104 70.4131488,53.2534375 69.8597633,53.2534375 Z" id="Shape" fill="#88B5BC"></path>
                <g id="Group" fill="#F9C573">
                    <polygon id="Shape" points="8.38466283 6.36157776 10.9756716 11.6208451 16.7695198 12.464063 12.5771884 16.5579975 13.5666804 22.3383676 8.38466283 19.6091428 3.20264529 22.3383676 4.19233141 16.5579975 0 12.464063 5.79365406 11.6208451"></polygon>
                    <path d="M13.5449333,5.50104818 C13.5449333,5.50104818 13.6080387,5.442694 13.7260942,5.33318266 C13.866091,5.1995516 14.0390968,5.05930706 14.2645285,4.8725737 C14.4926786,4.69965082 14.7623812,4.47829398 15.0854806,4.26082742 C15.2464478,4.15073254 15.4144052,4.02779974 15.5971194,3.90992431 C15.7804162,3.79457755 15.9732273,3.67300635 16.1741936,3.54657231 C16.3724415,3.41605347 16.590689,3.30265185 16.8108781,3.17602329 C17.034174,3.05523014 17.2559165,2.91498561 17.4992119,2.80061142 C17.980366,2.56155381 18.4813254,2.30343384 19.0205364,2.08557825 C19.2890739,1.97489983 19.5539222,1.84690967 19.835275,1.74770757 C20.1142978,1.64675485 20.3970098,1.54444053 20.6820518,1.44154266 C20.824767,1.3917471 20.9653463,1.33553258 21.1107799,1.2911834 C21.2566018,1.24839034 21.402812,1.20540276 21.5494106,1.16222067 C21.8412486,1.07682906 22.1342516,0.990853909 22.4272547,0.905267784 C23.0183091,0.754908524 23.6148003,0.632364754 24.1942046,0.500289803 C24.7811815,0.40886826 25.3588382,0.318808315 25.9178545,0.231666079 C26.4782301,0.182648571 27.0197711,0.135187174 27.5333516,0.090059945 C27.7881031,0.0612718848 28.038777,0.0610773709 28.2803248,0.0571870925 C28.5212902,0.0531023002 28.7541004,0.0494065357 28.9775905,0.0455162573 C29.423988,0.0412369511 29.8299982,0.0200349338 30.19232,0.0517407028 C30.5527001,0.0711920948 30.8668677,0.0881148058 31.1258909,0.101925294 C31.6408306,0.129740785 31.9351928,0.14588544 31.9351928,0.14588544 C31.9351928,0.14588544 31.642384,0.182259543 31.1299685,0.245671081 C30.8750228,0.27737685 30.5655154,0.315890606 30.2103778,0.359850752 C29.8552403,0.391751035 29.4601037,0.484145147 29.0296281,0.565451966 C28.8150699,0.607661486 28.5911915,0.651621632 28.3599347,0.69713789 C28.128872,0.742265119 27.8902367,0.784863668 27.6492713,0.857028332 C27.1685056,0.987352659 26.661721,1.124874 26.1370728,1.26725819 C25.6264049,1.44329329 25.0986499,1.6251638 24.5623515,1.81014654 C24.0411984,2.03286498 23.5099484,2.24469064 22.9915136,2.47985797 C22.7367622,2.60707007 22.4820107,2.73408766 22.2284243,2.86071622 L21.8505688,3.0490057 C21.7257173,3.11280626 21.6064967,3.18788864 21.4855286,3.25616302 C21.2451457,3.39504596 21.0067046,3.53295633 20.7709818,3.66931059 C20.5350649,3.80274714 20.3173999,3.96244307 20.0962399,4.10327115 C19.6510074,4.38200959 19.2494632,4.69206478 18.8663651,4.97527705 C18.6714181,5.11240936 18.5009366,5.27093821 18.3263775,5.40982115 C18.1558959,5.55376145 17.9844435,5.68389126 17.8359032,5.82666448 C17.6844504,5.96496387 17.5394052,6.09723334 17.4013501,6.22327836 C17.2650425,6.34990692 17.1452394,6.47770257 17.0279605,6.59285481 C16.7904902,6.82199221 16.6116594,7.03693009 16.4545756,7.20518463 C16.3108895,7.37713494 16.191669,7.51601787 16.1450681,7.58565386 C16.0755551,7.67804797 16.0384686,7.72725999 16.0384686,7.72725999 L16.0239058,7.74671138 C15.4660545,8.48761491 14.4142338,8.63525097 13.6746391,8.07660699 C12.9350443,7.51796301 12.787669,6.46408659 13.3453262,5.72318307 C13.4037715,5.64421042 13.4754203,5.56621034 13.5449333,5.50104818 Z" id="Shape"></path>
                    <path d="M80.9041712,81.3097363 C80.7958242,81.3097363 80.6855355,81.2951478 80.5758292,81.2646091 C79.9241936,81.0833221 79.5428431,80.4069972 79.7238099,79.754403 L81.9501668,71.7250629 C82.1311335,71.0724687 82.8060695,70.6904434 83.4577051,70.8715358 C84.1093407,71.0528228 84.4906912,71.7291477 84.3097245,72.3817419 L82.0833676,80.411082 C81.9328856,80.9539704 81.4406638,81.3097363 80.9041712,81.3097363 Z" id="Shape"></path>
                    <path d="M86.3533671,83.024571 C86.2450201,83.024571 86.1347314,83.0099825 86.0250251,82.9794438 C85.3733895,82.7981568 84.992039,82.1218319 85.1730058,81.4692377 L87.3993627,73.4398976 C87.5803294,72.7873034 88.2550713,72.4050836 88.906901,72.5863705 C89.5585366,72.7676575 89.9398872,73.4439824 89.7589204,74.0965766 L87.5325635,82.1259167 C87.3820815,82.6686106 86.8900539,83.024571 86.3533671,83.024571 Z" id="Shape"></path>
                    <path d="M19.4181972,8.06085136 C19.4240223,8.05793366 19.436255,8.0571556 19.5325635,8.01883636 C19.5748926,8.00327524 19.6354738,7.97837746 19.6908123,7.96048218 C19.7449858,7.94336496 19.8073145,7.92371905 19.8770217,7.90173898 C20.153326,7.81984862 20.5360357,7.7161727 20.9931127,7.63253171 C21.2206803,7.58507032 21.4692183,7.55200295 21.7282415,7.51368371 C21.9892064,7.48217245 22.2627924,7.45241182 22.5455044,7.43334946 C22.8295756,7.41973348 23.1183068,7.39853147 23.4142224,7.40553397 C23.5606268,7.40670105 23.7085846,7.40767362 23.8569307,7.40864619 C24.0046944,7.41778834 24.1532346,7.4269305 24.3017749,7.43587814 C24.5961372,7.44715995 24.8904994,7.49189815 25.1757356,7.52729968 C25.4607776,7.55530969 25.7392178,7.62747435 26.0046487,7.67493575 C26.2704678,7.71909041 26.5225009,7.80584361 26.7595829,7.86555939 C26.9974415,7.92430259 27.2162715,8.00424781 27.4164611,8.07757956 C27.6162623,8.15246742 27.7995591,8.20848743 27.9564487,8.28006855 C28.1123675,8.35067711 28.2478984,8.41233802 28.3599347,8.46291164 C28.580318,8.56347533 28.7063345,8.62105145 28.7063345,8.62105145 C28.7063345,8.62105145 28.5678911,8.61404895 28.3251782,8.60237812 C28.2055693,8.59673721 28.0601357,8.59012374 27.8937317,8.58234318 C27.7282986,8.57436811 27.5384,8.59012374 27.3360746,8.59420853 C27.1331666,8.60004395 26.91589,8.60587937 26.6859923,8.63816868 C26.456483,8.66909639 26.2184302,8.67862757 25.9729989,8.73309147 C25.7283443,8.78444315 25.4784471,8.81362024 25.2287441,8.8871465 C24.9788469,8.95347574 24.728173,9.01066284 24.4829359,9.09897216 L24.1175073,9.21937627 C23.9986751,9.26625413 23.8802312,9.31313198 23.762564,9.3594263 C23.5282004,9.44598499 23.305487,9.55685792 23.0913172,9.65411488 C22.8785065,9.75701275 22.6777344,9.86457895 22.4905542,9.9672823 C22.305704,10.0764046 22.1311449,10.1738561 21.9787212,10.277143 C21.6680487,10.4734075 21.4321318,10.6558616 21.278543,10.7793779 C21.2416507,10.8106947 21.2086417,10.8383156 21.1799045,10.8624354 C21.1527207,10.885777 21.1447597,10.8999765 21.1303911,10.913787 C21.1138866,10.934989 21.0678682,10.969807 21.073305,10.9665003 C20.2725466,11.4243861 19.2525699,11.1454531 18.7952988,10.3430832 C18.3386102,9.54071327 18.6174388,8.51893165 19.4181972,8.06085136 Z" id="Shape"></path>
                </g>
                <rect id="Rectangle-path" fill="#F76B4F" x="43.9741411" y="90.031935" width="3.89622167" height="3.90311632"></rect>
                <ellipse id="Oval" fill="#6F9A9E" cx="57.4664542" cy="52.2493567" rx="2.93488441" ry="2.9400779"></ellipse>
                <path d="M80.0257447,37.8903391 C80.0191429,36.7596297 79.9523483,35.6442868 79.8274968,34.5446996 L74.7497487,34.5269989 C74.0025813,28.7184242 69.0380345,24.2146489 63.0395308,24.2146489 L50.6813665,24.2146489 L50.6813665,7.05326926 C50.1291461,7.02195252 49.572654,7.0063914 49.0115017,7.0063914 C48.4503495,7.0063914 47.8938574,7.02195252 47.341637,7.05326926 L47.341637,24.2146489 L34.9844435,24.2146489 C28.9814739,24.2146489 24.0140145,28.7250377 23.2724781,34.5402258 L18.1976425,34.5225251 C18.0729852,35.6221122 18.0061906,36.7372606 17.9993946,37.8681645 L23.1734512,37.8858653 L23.1734512,42.0128671 C23.1734512,52.5376263 31.7206346,61.09974 42.2266082,61.09974 L55.797172,61.09974 C66.3033397,61.09974 74.8503289,52.5374318 74.8503289,42.0128671 L74.8503289,37.8728328 L80.0257447,37.8903391 Z M71.5105994,42.0124781 C71.5105994,50.6924672 64.4614401,57.7537116 55.797172,57.7537116 L42.2266082,57.7537116 C33.5619518,57.7537116 26.5131807,50.6920782 26.5131807,42.0124781 L26.5131807,36.2599234 L26.5143458,36.0062772 C26.5358987,31.3455292 30.32688,27.5600938 34.9846377,27.5600938 L63.039725,27.5600938 C67.7106862,27.5600938 71.5109878,31.3669257 71.5109878,36.0461526 L71.5109878,36.4248712 L71.5051626,37.8609675 L71.5109878,37.8609675 L71.5109878,42.0122836 L71.5105994,42.0122836 L71.5105994,42.0124781 Z" id="Shape" fill="#808080"></path>
                <path d="M39.0556127,44.6798475 C38.1334978,44.6798475 37.3857479,43.9309689 37.3857479,43.0070277 L37.3857479,40.3314888 C37.3857479,39.4077422 38.1333036,38.6586691 39.0556127,38.6586691 C39.9777275,38.6586691 40.7254774,39.4075476 40.7254774,40.3314888 L40.7254774,43.0070277 C40.7254774,43.9307743 39.9777275,44.6798475 39.0556127,44.6798475 Z" id="Shape" fill="#6F9A9E"></path>
                <g id="Group" transform="translate(35.144828, 33.067366)" fill="#88B5BC">
                    <path d="M19.9158557,3.02644208 C19.9158557,3.02644208 19.9203216,2.98209291 19.9352728,2.90584345 C19.9523597,2.83192816 19.9698351,2.71541433 20.0071158,2.58333937 C20.0238144,2.51506499 20.0453673,2.44387289 20.0702211,2.3656783 C20.1024534,2.28631662 20.1459476,2.2063714 20.1919659,2.11592242 C20.2375959,2.02488991 20.2952645,1.93502448 20.3558457,1.83407175 C20.4168151,1.73156292 20.489629,1.65356284 20.5641904,1.55455525 C20.6399168,1.45924343 20.7251576,1.36723834 20.8142818,1.26823076 C20.9084544,1.17875436 21.010588,1.09063955 21.1193234,1.00213572 C21.3319399,0.814624298 21.5917398,0.679048095 21.8626074,0.528105293 C22.142601,0.409451802 22.4398757,0.280683587 22.7583151,0.221162327 C23.0736477,0.139077453 23.4041255,0.119626061 23.7340209,0.104259461 C24.0637221,0.119431547 24.3945884,0.137132314 24.7101151,0.218633646 C25.0287486,0.277571364 25.3262176,0.406923121 25.6064053,0.524604043 C25.8772729,0.675157817 26.1374612,0.810539505 26.3502718,0.998245438 C26.4586189,1.08694379 26.5611408,1.17525311 26.6555076,1.26434048 C26.7446318,1.36354258 26.8294842,1.45652023 26.905599,1.55124851 C26.9789953,1.64986707 27.0554984,1.73078486 27.1114195,1.82940342 C27.1675347,1.92763295 27.2219024,2.01535873 27.2659791,2.1044461 C27.3098616,2.19372799 27.3523849,2.2721171 27.384423,2.35128427 C27.4135485,2.43375817 27.4393732,2.50845151 27.458596,2.57925458 C27.5009252,2.71599787 27.5184005,2.83348427 27.5347108,2.90720505 C27.5488852,2.98325999 27.551992,3.02644208 27.551992,3.02644208 C27.551992,3.02644208 27.5059736,3.025275 27.4279171,3.01768896 C27.3521907,3.00796326 27.2347177,3.0029059 27.1048177,2.98403805 C27.0376348,2.97703555 26.9690927,2.96458666 26.8935604,2.95466645 C26.8131739,2.95077617 26.7339524,2.93968887 26.6477408,2.9330754 C26.4788126,2.91518012 26.3025059,2.88872623 26.1085298,2.88114019 C26.0131922,2.87491574 25.9207671,2.86110525 25.8242644,2.85313018 C25.7242667,2.85176858 25.6256282,2.84671122 25.5277664,2.83931969 C25.3359261,2.81442191 25.127193,2.82901045 24.9336052,2.80469621 C24.7299205,2.81208774 24.5347793,2.78699545 24.3328422,2.79341441 C24.134206,2.77843684 23.9334338,2.79438698 23.7342151,2.78018746 C23.5349963,2.79380343 23.3340301,2.77629718 23.1350055,2.79088573 C22.9328742,2.78368871 22.737733,2.80955906 22.53366,2.80138948 C22.3396838,2.8255092 22.1307566,2.81053163 21.9387221,2.83581844 C21.8406661,2.84320997 21.7422218,2.84846185 21.6420299,2.84962893 C21.5453331,2.857604 21.4534905,2.87238706 21.3577645,2.87822248 C21.1600991,2.88892074 20.995831,2.90759408 20.8307863,2.92198811 C20.7441863,2.92860158 20.6632173,2.93502054 20.5880734,2.94046693 C20.5080752,2.95505547 20.4350672,2.97100562 20.3657484,2.98014777 C20.2309942,3.00407298 20.1133269,3.00951937 20.0383772,3.01924507 C19.9603207,3.02644208 19.9158557,3.02644208 19.9158557,3.02644208 Z" id="Shape"></path>
                    <path d="M0.0930075841,3.02644208 C0.0930075841,3.02644208 0.0974735015,2.98209291 0.112424616,2.90584345 C0.129511605,2.83192816 0.146986933,2.71541433 0.184267635,2.58333937 C0.200966283,2.51506499 0.222519189,2.44387289 0.24737299,2.3656783 C0.279605263,2.28631662 0.323099415,2.2063714 0.369117781,2.11592242 C0.414747807,2.02488991 0.472416393,1.93502448 0.532997533,1.83407175 C0.593967014,1.73156292 0.666780885,1.65356284 0.741342288,1.55455525 C0.817068713,1.45924343 0.902309485,1.36723834 0.991433662,1.26823076 C1.08560627,1.17875436 1.18773986,1.09063955 1.29647524,1.00213572 C1.50909174,0.814624298 1.76889163,0.679048095 2.03956506,0.528105293 C2.31955866,0.409451802 2.61683342,0.280683587 2.93527275,0.221162327 C3.25060535,0.139077453 3.58108324,0.119626061 3.91097862,0.104259461 C4.24067982,0.119431547 4.57154605,0.137132314 4.88707283,0.218633646 C5.20570632,0.277571364 5.50317526,0.406923121 5.78336303,0.524604043 C6.05423063,0.675157817 6.31441886,0.810539505 6.52722953,0.998245438 C6.63557657,1.08694379 6.7380985,1.17525311 6.83246528,1.26434048 C6.92158946,1.36354258 7.00644189,1.45652023 7.08255665,1.55124851 C7.15595303,1.64986707 7.23245614,1.73078486 7.28818302,1.82940342 C7.34429825,1.92763295 7.39866594,2.01535873 7.4427426,2.1044461 C7.48662509,2.19372799 7.52914839,2.2721171 7.56118649,2.35128427 C7.59031204,2.43375817 7.6161367,2.50845151 7.63535956,2.57925458 C7.67768869,2.71599787 7.69516402,2.83348427 7.71147432,2.90720505 C7.72564876,2.98325999 7.72875548,3.02644208 7.72875548,3.02644208 C7.72875548,3.02644208 7.68273712,3.025275 7.60468065,3.01768896 C7.52895422,3.00796326 7.41148118,3.0029059 7.28158123,2.98403805 C7.2143983,2.97703555 7.14585618,2.96458666 7.07032392,2.95466645 C6.98993741,2.95077617 6.91071592,2.93968887 6.82450429,2.9330754 C6.65557611,2.91518012 6.47926946,2.88872623 6.28529331,2.88114019 C6.18995568,2.87491574 6.09753061,2.86110525 6.00102796,2.85313018 C5.90103024,2.85176858 5.80239172,2.84671122 5.70452988,2.83931969 C5.5126896,2.81442191 5.30395651,2.82901045 5.1103687,2.80469621 C4.90668403,2.81208774 4.71154285,2.78699545 4.50960572,2.79341441 C4.31096948,2.77843684 4.11019737,2.79438698 3.91097862,2.78018746 C3.71175987,2.79380343 3.51079359,2.77629718 3.31176901,2.79088573 C3.1096377,2.78368871 2.91449653,2.80955906 2.71042352,2.80138948 C2.51644737,2.8255092 2.3075201,2.81053163 2.11548565,2.83581844 C2.01742964,2.84320997 1.91898529,2.84846185 1.8187934,2.84962893 C1.72209658,2.857604 1.63025402,2.87238706 1.53452805,2.87822248 C1.33686266,2.88892074 1.17259457,2.90759408 1.0075498,2.92198811 C0.920949836,2.92860158 0.839980811,2.93502054 0.764836897,2.94046693 C0.684838724,2.95505547 0.611830683,2.97100562 0.542511879,2.98014777 C0.407757675,3.00407298 0.290090461,3.00951937 0.215140716,3.01924507 C0.137666758,3.02644208 0.0930075841,3.02644208 0.0930075841,3.02644208 Z" id="Shape"></path>
                </g>
                <path d="M58.8784608,44.6798475 C57.9563459,44.6798475 57.208596,43.9309689 57.208596,43.0070277 L57.208596,40.3314888 C57.208596,39.4077422 57.9561518,38.6586691 58.8784608,38.6586691 C59.8007698,38.6586691 60.5483256,39.4075476 60.5483256,40.3314888 L60.5483256,43.0070277 C60.5481314,43.9307743 59.8005757,44.6798475 58.8784608,44.6798475 Z" id="Shape" fill="#6F9A9E"></path>
                <path d="M51.5273666,37.8780847 L51.5273666,45.7959683 C51.5273666,47.2124187 50.380985,48.3608289 48.9670367,48.3608289 L48.9670367,48.3608289 C47.5530885,48.3608289 46.4067069,47.2124187 46.4067069,45.7959683 L46.4067069,37.8780847 L51.5273666,37.8780847 L51.5273666,37.8780847 Z" id="Shape" fill="#A3CDD6"></path>
                <g id="Group" transform="translate(87.764985, 54.074870)" fill="#C0E7F9">
                    <ellipse id="Oval" cx="3.28031341" cy="1.83018147" rx="1.66986477" ry="1.67281971"></ellipse>
                    <ellipse id="Oval" cx="1.83316201" cy="7.18301004" rx="1.66986477" ry="1.67281971"></ellipse>
                </g>
            </g>
        </g>
    </g>
</svg>